SplineFontDB: 3.2
FontName: Cylincilo
FullName: Cylincilo
FamilyName: Cylincilo
Weight: Regular
Copyright: Copyright (c) 2019, J. Hudson.\nAll rights reserved.
UComments: "2019-7-5: Created with FontForge (http://fontforge.org)"
Version: 001.000
ItalicAngle: 0
UnderlinePosition: -158
UnderlineWidth: 79
Ascent: 1583
Descent: 465
InvalidEm: 0
LayerCount: 2
Layer: 0 1 "Back" 1
Layer: 1 1 "Fore" 0
XUID: [1021 221 1603365728 4220139]
FSType: 0
OS2Version: 0
OS2_WeightWidthSlopeOnly: 0
OS2_UseTypoMetrics: 1
CreationTime: 1562379616
ModificationTime: 1593021684
PfmFamily: 17
TTFWeight: 400
TTFWidth: 5
LineGap: 143
VLineGap: 0
OS2TypoAscent: 0
OS2TypoAOffset: 1
OS2TypoDescent: 0
OS2TypoDOffset: 1
OS2TypoLinegap: 143
OS2WinAscent: 0
OS2WinAOffset: 1
OS2WinDescent: 0
OS2WinDOffset: 1
HheadAscent: 0
HheadAOffset: 1
HheadDescent: 0
HheadDOffset: 1
OS2Vendor: 'PfEd'
Lookup: 258 0 0 "kerning" { "kerning-AV" [153,15,0] "kerning-subclasses" [167,16,0] } ['kern' ('DFLT' <'dflt' > 'latn' <'dflt' > ) ]
MarkAttachClasses: 1
DEI: 91125
KernClass2: 20+ 14 "kerning-subclasses"
 1 V
 1 P
 1 K
 18 Y Ydieresis Yacute
 1 F
 50 A Agrave Aacute Acircumflex Atilde Adieresis Aring
 46 D O Ograve Oacute Ocircumflex Otilde Odieresis
 1 W
 1 T
 19 a g m n q u v w x z
 1 L
 1 R
 0 
 1 f
 1 r
 102 b c e h o p ae ccedilla egrave eacute ecircumflex edieresis ograve oacute ocircumflex otilde odieresis
 1 s
 18 y yacute ydieresis
 1 X
 12 comma period
 50 A Agrave Aacute Acircumflex Atilde Adieresis Aring
 149 a c e o q agrave aacute acircumflex atilde adieresis aring ae ccedilla egrave eacute ecircumflex edieresis ograve oacute ocircumflex otilde odieresis
 18 Y Ydieresis Yacute
 44 O Ograve Oacute Ocircumflex Otilde Odieresis
 1 V
 1 W
 2 AE
 1 J
 17 m n p r s u w x z
 1 T
 3 g j
 20 v y yacute ydieresis
 12 comma period

StartChar: A
Encoding: 65 65 0
Width: 1348
VWidth: 0
Flags: MW
LayerCount: 2
Fore
SplineSet
546 1266 m 1,0,-1
 793 1266 l 1,1,-1
 1270 0 l 1,2,-1
 1006 0 l 1,3,-1
 545 1264 l 1,4,-1
 546 1266 l 1,0,-1
465 1051 m 1,5,-1
 595 693 l 1,6,-1
 540 546 l 1,7,-1
 648 546 l 1,8,-1
 739 298 l 1,9,-1
 446 298 l 1,10,-1
 334 0 l 1,11,-1
 68 0 l 1,12,-1
 465 1051 l 1,5,-1
EndSplineSet
Validated: 1
EndChar

StartChar: P
Encoding: 80 80 1
Width: 1078
VWidth: 0
Flags: MW
LayerCount: 2
Fore
SplineSet
115 1271 m 1,0,-1
 363 1271 l 1,1,-1
 363 5 l 1,2,-1
 115 5 l 1,3,-1
 115 1271 l 1,0,-1
512 1271 m 1,4,-1
 586 1271 l 2,5,6
 750 1271 750 1271 867 1153.5 c 128,-1,7
 984 1036 984 1036 984 873 c 128,-1,8
 984 710 984 710 867 593 c 128,-1,9
 750 476 750 476 586 476 c 2,10,-1
 512 476 l 1,11,-1
 512 725 l 1,12,-1
 586 725 l 2,13,14
 649 725 649 725 692 767.5 c 128,-1,15
 735 810 735 810 735 873 c 128,-1,16
 735 936 735 936 692 979 c 128,-1,17
 649 1022 649 1022 586 1022 c 2,18,-1
 512 1022 l 1,19,-1
 512 1271 l 1,4,-1
EndSplineSet
Validated: 1
EndChar

StartChar: B
Encoding: 66 66 2
Width: 1064
VWidth: 0
Flags: MW
LayerCount: 2
Fore
SplineSet
512 1271 m 1,0,-1
 562 1271 l 2,1,2
 642 1271 642 1271 706.5 1243 c 128,-1,3
 771 1215 771 1215 840 1153 c 1,4,5
 934 1049 934 1049 934 912 c 0,6,7
 934 782 934 782 851 683 c 1,8,9
 968 566 968 566 968 402 c 0,10,11
 968 249 968 249 864 134 c 0,12,13
 814 80 814 80 732 42.5 c 128,-1,14
 650 5 650 5 568 5 c 2,15,-1
 562 5 l 1,16,-1
 512 5 l 1,17,-1
 512 253 l 1,18,-1
 571 253 l 2,19,20
 634 253 634 253 677 296 c 128,-1,21
 720 339 720 339 720 402 c 128,-1,22
 720 465 720 465 677 508 c 128,-1,23
 634 551 634 551 571 551 c 2,24,-1
 512 551 l 1,25,-1
 512 799 l 1,26,-1
 575 799 l 2,27,28
 622 799 622 799 654 832 c 128,-1,29
 686 865 686 865 686 912 c 0,30,31
 686 958 686 958 656 989 c 128,-1,32
 626 1020 626 1020 581 1022 c 2,33,-1
 512 1022 l 1,34,-1
 512 1271 l 1,0,-1
115 1271 m 1,35,-1
 363 1271 l 1,36,-1
 363 5 l 1,37,-1
 115 5 l 1,38,-1
 115 1271 l 1,35,-1
EndSplineSet
Validated: 1
EndChar

StartChar: C
Encoding: 67 67 3
Width: 1118
VWidth: 0
Flags: MW
LayerCount: 2
Fore
SplineSet
684 1292 m 1,0,1
 875 1271 875 1271 1012 1118 c 1,2,-1
 827 953 l 1,3,4
 761 1026 761 1026 684 1042 c 1,5,-1
 684 1292 l 1,0,1
535 1283 m 1,6,-1
 535 1022 l 1,7,8
 469 988 469 988 423 923 c 0,9,10
 339 808 339 808 339 634 c 0,11,12
 339 544 339 544 365 461 c 128,-1,13
 391 378 391 378 440 319 c 0,14,15
 485 265 485 265 535 241 c 1,16,-1
 535 -20 l 1,17,18
 369 17 369 17 250 159 c 0,19,20
 168 257 168 257 125.5 378.5 c 128,-1,21
 83 500 83 500 83 630 c 0,22,23
 83 875 83 875 222 1068 c 0,24,25
 346 1241 346 1241 535 1283 c 1,6,-1
845 331 m 1,26,-1
 1042 180 l 1,27,28
 973 90 973 90 879.5 36 c 128,-1,29
 786 -18 786 -18 684 -29 c 1,30,-1
 684 221 l 1,31,32
 776 241 776 241 845 331 c 1,26,-1
EndSplineSet
Validated: 1
EndChar

StartChar: D
Encoding: 68 68 4
Width: 1256
VWidth: 0
Flags: MW
LayerCount: 2
Fore
SplineSet
115 1271 m 1,0,-1
 363 1271 l 1,1,-1
 363 5 l 1,2,-1
 115 5 l 1,3,-1
 115 1271 l 1,0,-1
512 1231 m 1,4,-1
 512 1271 l 1,5,6
 586 1271 l 2,7,8
 704 1271 704 1271 811 1219 c 128,-1,9
 918 1167 918 1167 993 1080.5 c 128,-1,10
 1068 994 1068 994 1112.5 877.5 c 128,-1,11
 1157 761 1157 761 1157 636 c 128,-1,12
 1157 511 1157 511 1113 395 c 128,-1,13
 1069 279 1069 279 993.5 193 c 128,-1,14
 918 107 918 107 811 56 c 128,-1,15
 704 5 704 5 586 5 c 2,16,-1
 512 5 l 1,17,-1
 512 253 l 1,18,-1
 586 253 l 2,19,20
 717 253 717 253 813 363 c 128,-1,21
 909 473 909 473 909 636 c 128,-1,22
 909 799 909 799 813 910.5 c 128,-1,23
 717 1022 717 1022 586 1022 c 2,24,-1
 512 1022 l 1,25,-1
 512 1231 l 1,4,-1
EndSplineSet
Validated: 1
EndChar

StartChar: E
Encoding: 69 69 5
Width: 1068
VWidth: 0
Flags: MW
LayerCount: 2
Fore
SplineSet
115 1271 m 1,0,-1
 363 1271 l 1,1,-1
 363 5 l 1,2,-1
 115 5 l 1,3,-1
 115 1271 l 1,0,-1
512 1271 m 1,4,-1
 959 1271 l 1,5,-1
 959 1022 l 1,6,-1
 512 1022 l 1,7,-1
 512 1271 l 1,4,-1
512 772 m 1,8,-1
 884 772 l 1,9,-1
 884 524 l 1,10,-1
 512 524 l 1,11,-1
 512 772 l 1,8,-1
512 253 m 1,12,-1
 959 253 l 1,13,-1
 959 5 l 1,14,-1
 512 5 l 1,15,-1
 512 253 l 1,12,-1
EndSplineSet
Validated: 1
EndChar

StartChar: F
Encoding: 70 70 6
Width: 1062
VWidth: 0
Flags: MW
LayerCount: 2
Fore
SplineSet
115 1271 m 1,0,-1
 363 1271 l 1,1,-1
 363 5 l 1,2,-1
 115 5 l 1,3,-1
 115 1271 l 1,0,-1
512 1271 m 1,4,-1
 959 1271 l 1,5,-1
 959 1022 l 1,6,-1
 512 1022 l 1,7,-1
 512 1271 l 1,4,-1
512 738 m 1,8,-1
 884 738 l 1,9,-1
 884 490 l 1,10,-1
 512 490 l 1,11,-1
 512 738 l 1,8,-1
EndSplineSet
Validated: 1
EndChar

StartChar: O
Encoding: 79 79 7
Width: 1376
VWidth: 0
Flags: MW
LayerCount: 2
Fore
SplineSet
606 1294 m 1,0,-1
 606 1046 l 1,1,2
 540 1046 540 1046 478 997 c 128,-1,3
 416 948 416 948 376 854 c 0,4,5
 334 755 334 755 334 636 c 128,-1,6
 334 517 334 517 376 418 c 0,7,8
 416 324 416 324 478 275.5 c 128,-1,9
 540 227 540 227 606 227 c 1,10,-1
 606 -22 l 1,11,12
 459 -22 459 -22 336.5 72.5 c 128,-1,13
 214 167 214 167 148 320 c 0,14,15
 84 469 84 469 84 636 c 128,-1,16
 84 803 84 803 148 952 c 0,17,18
 214 1105 214 1105 336.5 1199.5 c 128,-1,19
 459 1294 459 1294 606 1294 c 1,0,-1
755 1294 m 1,20,21
 902 1294 902 1294 1024.5 1199.5 c 128,-1,22
 1147 1105 1147 1105 1213 952 c 0,23,24
 1278 801 1278 801 1278 636 c 128,-1,25
 1278 471 1278 471 1213 320 c 0,26,27
 1147 167 1147 167 1024.5 72.5 c 128,-1,28
 902 -22 902 -22 755 -22 c 1,29,-1
 755 227 l 1,30,31
 821 227 821 227 883 275.5 c 128,-1,32
 945 324 945 324 985 418 c 0,33,34
 1027 517 1027 517 1027 636 c 128,-1,35
 1027 755 1027 755 985 854 c 0,36,37
 945 948 945 948 883 997 c 128,-1,38
 821 1046 821 1046 755 1046 c 1,39,-1
 755 1294 l 1,20,21
EndSplineSet
Validated: 1
EndChar

StartChar: Q
Encoding: 81 81 8
Width: 1376
VWidth: 0
Flags: MW
LayerCount: 2
Fore
SplineSet
606 1271 m 1,0,-1
 606 1022 l 1,1,2
 540 1022 540 1022 478 973.5 c 128,-1,3
 416 925 416 925 376 831 c 0,4,5
 334 732 334 732 334 613 c 128,-1,6
 334 494 334 494 376 395 c 0,7,8
 416 301 416 301 478 252 c 128,-1,9
 540 203 540 203 606 203 c 1,10,-1
 606 -45 l 1,11,12
 459 -45 459 -45 336.5 49.5 c 128,-1,13
 214 144 214 144 148 297 c 0,14,15
 84 446 84 446 84 613 c 128,-1,16
 84 780 84 780 148 929 c 0,17,18
 214 1082 214 1082 336.5 1176.5 c 128,-1,19
 459 1271 459 1271 606 1271 c 1,0,-1
755 1271 m 1,20,21
 902 1271 902 1271 1024.5 1176.5 c 128,-1,22
 1147 1082 1147 1082 1213 929 c 0,23,24
 1278 778 1278 778 1278 613 c 128,-1,25
 1278 448 1278 448 1213 297 c 0,26,27
 1150 150 1150 150 1037 59 c 1,28,-1
 1213 -293 l 1,29,-1
 991 -293 l 1,30,-1
 861 -32 l 1,31,32
 812 -45 812 -45 755 -45 c 1,33,-1
 755 203 l 1,34,35
 821 203 821 203 883 252 c 128,-1,36
 945 301 945 301 985 395 c 0,37,38
 1027 494 1027 494 1027 613 c 128,-1,39
 1027 732 1027 732 985 831 c 0,40,41
 945 925 945 925 883 973.5 c 128,-1,42
 821 1022 821 1022 755 1022 c 1,43,-1
 755 1271 l 1,20,21
EndSplineSet
Validated: 1
EndChar

StartChar: R
Encoding: 82 82 9
Width: 1118
VWidth: 0
Flags: MW
LayerCount: 2
Fore
SplineSet
115 1271 m 1,0,-1
 363 1271 l 1,1,-1
 363 5 l 1,2,-1
 115 5 l 1,3,-1
 115 1271 l 1,0,-1
512 1271 m 1,4,-1
 586 1271 l 2,5,6
 750 1271 750 1271 867 1154 c 128,-1,7
 984 1037 984 1037 984 874 c 0,8,9
 984 763 984 763 926.5 669 c 128,-1,10
 869 575 869 575 774 524 c 1,11,-1
 1078 9 l 1,12,-1
 790 9 l 1,13,-1
 512 476 l 1,14,-1
 512 725 l 1,15,-1
 586 725 l 2,16,17
 649 725 649 725 692 768 c 128,-1,18
 735 811 735 811 735 874 c 128,-1,19
 735 937 735 937 692 979.5 c 128,-1,20
 649 1022 649 1022 586 1022 c 2,21,-1
 512 1022 l 1,22,-1
 512 1271 l 1,4,-1
EndSplineSet
Validated: 1
EndChar

StartChar: S
Encoding: 83 83 10
Width: 947
VWidth: 0
Flags: MW
LayerCount: 2
Fore
SplineSet
402 1271 m 1,0,-1
 402 1003 l 1,1,2
 392 995 392 995 387 990 c 0,3,4
 366 962 366 962 366 923 c 0,5,6
 366 916 366 916 368 902 c 0,7,8
 374 860 374 860 402 836 c 1,9,-1
 402 578 l 1,10,11
 394 580 394 580 378.5 584.5 c 128,-1,12
 363 589 363 589 355 591 c 0,13,14
 244 624 244 624 195 678 c 0,15,16
 119 762 119 762 119 920 c 0,17,18
 119 946 119 946 123 996 c 1,19,20
 139 1075 139 1075 191 1142 c 0,21,22
 273 1247 273 1247 402 1271 c 1,0,-1
551 1271 m 1,23,24
 650 1248 650 1248 723.5 1205.5 c 128,-1,25
 797 1163 797 1163 849 1084 c 1,26,-1
 636 956 l 1,27,28
 627 971 627 971 597 991 c 128,-1,29
 567 1011 567 1011 551 1015 c 1,30,-1
 551 1271 l 1,23,24
551 785 m 1,31,32
 640 761 640 761 692 719 c 0,33,34
 797 635 797 635 832 518 c 0,35,36
 850 458 850 458 850 397 c 0,37,38
 850 298 850 298 805.5 209.5 c 128,-1,39
 761 121 761 121 680 62 c 0,40,41
 619 18 619 18 551 0 c 1,42,-1
 551 288 l 1,43,44
 599 329 599 329 599 399 c 0,45,46
 599 426 599 426 594 447 c 0,47,48
 582 483 582 483 551 511 c 1,49,-1
 551 785 l 1,31,32
303 334 m 1,50,51
 315 310 315 310 344 289 c 128,-1,52
 373 268 373 268 402 260 c 1,53,-1
 402 -8 l 1,54,55
 293 6 293 6 205 77 c 0,56,57
 165 109 165 109 131 150 c 0,58,59
 83 208 83 208 67 257 c 1,60,-1
 303 334 l 1,50,51
EndSplineSet
Validated: 1
EndChar

StartChar: T
Encoding: 84 84 11
Width: 954
VWidth: 0
Flags: MW
LayerCount: 2
Fore
SplineSet
17 1266 m 1,0,-1
 353 1266 l 1,1,-1
 601 1266 l 1,2,-1
 937 1266 l 1,3,-1
 937 1018 l 1,4,-1
 601 1018 l 1,5,-1
 601 0 l 1,6,-1
 353 0 l 1,7,-1
 353 1018 l 1,8,-1
 17 1018 l 1,9,-1
 17 1266 l 1,0,-1
EndSplineSet
Validated: 1
EndChar

StartChar: G
Encoding: 71 71 12
Width: 1200
VWidth: 0
Flags: MW
LayerCount: 2
Fore
SplineSet
701 1299 m 1,0,1
 890 1277 890 1277 1025 1125 c 1,2,-1
 839 960 l 1,3,4
 777 1030 777 1030 701 1048 c 1,5,-1
 701 1299 l 1,0,1
552 1291 m 1,6,-1
 552 1031 l 1,7,8
 489 1002 489 1002 436 930 c 0,9,10
 351 812 351 812 351 640 c 0,11,12
 351 551 351 551 377.5 468 c 128,-1,13
 404 385 404 385 453 326 c 0,14,15
 500 271 500 271 552 246 c 1,16,-1
 552 -14 l 1,17,18
 381 24 381 24 262 166 c 0,19,20
 180 263 180 263 138 385 c 128,-1,21
 96 507 96 507 96 637 c 0,22,23
 96 883 96 883 234 1075 c 0,24,25
 359 1248 359 1248 552 1291 c 1,6,-1
705 722 m 1,26,-1
 1104 722 l 1,27,-1
 1104 338 l 2,28,29
 1104 258 1104 258 1054 187 c 0,30,31
 985 97 985 97 893.5 43 c 128,-1,32
 802 -11 802 -11 701 -22 c 1,33,-1
 701 229 l 1,34,35
 761 242 761 242 808.5 277 c 128,-1,36
 856 312 856 312 856 337 c 0,37,38
 856 347 856 347 855.5 381 c 128,-1,39
 855 415 855 415 855 436 c 0,40,41
 855 448 855 448 855.5 470 c 128,-1,42
 856 492 856 492 856 502 c 1,43,-1
 705 502 l 1,44,-1
 705 722 l 1,26,-1
EndSplineSet
Validated: 1
EndChar

StartChar: I
Encoding: 73 73 13
Width: 487
VWidth: 0
Flags: MW
LayerCount: 2
Fore
SplineSet
115 1271 m 1,0,-1
 363 1271 l 1,1,-1
 363 5 l 1,2,-1
 115 5 l 1,3,-1
 115 1271 l 1,0,-1
EndSplineSet
Validated: 1
EndChar

StartChar: H
Encoding: 72 72 14
Width: 1231
VWidth: 0
Flags: MW
LayerCount: 2
Fore
SplineSet
109 1266 m 1,0,-1
 357 1266 l 1,1,-1
 357 757 l 1,2,-1
 704 757 l 1,3,-1
 704 509 l 1,4,-1
 357 509 l 1,5,-1
 357 0 l 1,6,-1
 109 0 l 1,7,-1
 109 1266 l 1,0,-1
853 1266 m 1,8,-1
 1102 1266 l 1,9,-1
 1102 0 l 1,10,-1
 853 0 l 1,11,-1
 853 1266 l 1,8,-1
EndSplineSet
Validated: 1
EndChar

StartChar: J
Encoding: 74 74 15
Width: 985
VWidth: 0
Flags: MW
LayerCount: 2
Fore
SplineSet
624 1267 m 1,0,-1
 872 1267 l 1,1,2
 872 1124 872 1124 872.5 839 c 128,-1,3
 873 554 873 554 873 411 c 2,4,-1
 873 401 l 2,5,6
 873 293 873 293 821.5 199 c 128,-1,7
 770 105 770 105 679 49 c 0,8,9
 622 14 622 14 554 0 c 1,10,-1
 554 264 l 1,11,12
 621 310 621 310 624 397 c 2,13,-1
 624 1267 l 1,0,-1
83 416 m 1,14,-1
 331 407 l 1,15,16
 331 401 l 2,17,18
 331 358 331 358 351 322 c 128,-1,19
 371 286 371 286 405 264 c 1,20,-1
 405 0 l 1,21,22
 331 14 331 14 272 52 c 0,23,24
 183 108 183 108 133 201.5 c 128,-1,25
 83 295 83 295 83 401 c 2,26,-1
 83 416 l 1,14,-1
EndSplineSet
Validated: 1
EndChar

StartChar: L
Encoding: 76 76 16
Width: 859
VWidth: 0
Flags: MW
LayerCount: 2
Fore
SplineSet
115 1271 m 1,0,-1
 363 1271 l 1,1,-1
 363 253 l 1,2,-1
 760 253 l 1,3,-1
 760 5 l 1,4,-1
 363 5 l 1,5,-1
 127 5 l 1,6,-1
 115 5 l 1,7,-1
 115 1271 l 1,0,-1
EndSplineSet
Validated: 1
EndChar

StartChar: M
Encoding: 77 77 17
Width: 1404
VWidth: 0
Flags: MW
LayerCount: 2
Fore
SplineSet
115 1271 m 1,0,-1
 363 1271 l 1,1,-1
 363 5 l 1,2,-1
 115 5 l 1,3,4
 115 1271 l 1,0,-1
1282 1271 m 1,5,6
 1282 5 l 1,7,-1
 1034 5 l 1,8,9
 1034 1271 l 1,10,-1
 1282 1271 l 1,5,6
512 1073 m 1,11,-1
 708 812 l 1,12,-1
 885 1061 l 1,13,-1
 885 632 l 1,14,-1
 714 388 l 1,15,-1
 512 660 l 1,16,-1
 512 1073 l 1,11,-1
EndSplineSet
Validated: 1
EndChar

StartChar: N
Encoding: 78 78 18
Width: 1256
VWidth: 0
Flags: MW
LayerCount: 2
Fore
SplineSet
115 1271 m 1,0,-1
 363 1271 l 1,1,-1
 363 5 l 1,2,-1
 115 5 l 1,3,4
 115 1271 l 1,0,-1
884 1271 m 1,5,-1
 1133 1271 l 1,6,-1
 1133 5 l 1,7,-1
 884 5 l 1,8,9
 884 1271 l 1,5,-1
512 1040 m 1,10,-1
 735 693 l 1,11,-1
 735 235 l 1,12,-1
 512 581 l 1,13,-1
 512 1040 l 1,10,-1
EndSplineSet
Validated: 1
EndChar

StartChar: U
Encoding: 85 85 19
Width: 1186
VWidth: 0
Flags: MW
LayerCount: 2
Fore
SplineSet
106 1274 m 1,0,-1
 354 1274 l 1,1,-1
 354 503 l 2,2,3
 354 425 354 425 387.5 358.5 c 128,-1,4
 421 292 421 292 476 256 c 0,5,6
 494 244 494 244 513 236 c 1,7,-1
 513 -19 l 1,8,9
 419 -3 419 -3 341 48 c 0,10,11
 230 121 230 121 168 242 c 128,-1,12
 106 363 106 363 106 503 c 2,13,-1
 106 1274 l 1,0,-1
821 1274 m 1,14,-1
 1069 1274 l 1,15,-1
 1069 500 l 2,16,17
 1068 362 1068 362 1006 241 c 128,-1,18
 944 120 944 120 834 48 c 0,19,20
 756 -3 756 -3 662 -19 c 1,21,-1
 662 236 l 1,22,23
 678 243 678 243 698 256 c 0,24,25
 753 292 753 292 787 358.5 c 128,-1,26
 821 425 821 425 821 503 c 2,27,-1
 821 1274 l 1,14,-1
EndSplineSet
Validated: 1
EndChar

StartChar: V
Encoding: 86 86 20
Width: 1357
VWidth: 0
Flags: MW
LayerCount: 2
Fore
SplineSet
799 6 m 1,0,1
 552 6 l 1,2,-1
 1012 1271 l 1,3,-1
 1277 1271 l 1,4,-1
 799 6 l 1,0,1
471 220 m 1,5,-1
 74 1271 l 1,6,-1
 340 1271 l 1,7,-1
 601 578 l 1,8,-1
 471 220 l 1,5,-1
EndSplineSet
Validated: 1
EndChar

StartChar: W
Encoding: 87 87 21
Width: 1411
VWidth: 0
Flags: MW
LayerCount: 2
Fore
SplineSet
79 1271 m 1,0,-1
 331 1271 l 1,1,-1
 391 892 l 1,2,-1
 228 343 l 1,3,-1
 79 1271 l 1,0,-1
1072 1271 m 1,4,-1
 1323 1271 l 1,5,-1
 1175 345 l 1,6,-1
 1012 894 l 1,7,-1
 1072 1271 l 1,4,-1
583 1010 m 1,8,-1
 820 1010 l 1,9,10
 880 818 880 818 986 460 c 128,-1,11
 1092 102 1092 102 1121 5 c 1,12,-1
 877 5 l 1,13,-1
 701 561 l 1,14,-1
 526 5 l 1,15,-1
 282 5 l 1,16,-1
 559 936 l 1,17,-1
 583 1010 l 1,8,-1
EndSplineSet
Validated: 1
EndChar

StartChar: X
Encoding: 88 88 22
Width: 1112
VWidth: 0
Flags: MW
LayerCount: 2
Fore
SplineSet
47 1271 m 1,0,-1
 315 1271 l 1,1,2
 380 1165 380 1165 510.5 953.5 c 128,-1,3
 641 742 641 742 706 636 c 2,4,-1
 1094 5 l 1,5,-1
 807 5 l 1,6,-1
 47 1271 l 1,0,-1
805 1271 m 1,7,-1
 1097 1271 l 1,8,-1
 793 778 l 1,9,-1
 648 1015 l 1,10,-1
 805 1271 l 1,7,-1
326 515 m 1,11,-1
 470 276 l 1,12,-1
 303 5 l 1,13,-1
 12 5 l 1,14,-1
 326 515 l 1,11,-1
EndSplineSet
Validated: 1
EndChar

StartChar: Y
Encoding: 89 89 23
Width: 1129
VWidth: 0
Flags: MW
LayerCount: 2
Fore
SplineSet
70 1271 m 1,0,-1
 355 1271 l 1,1,-1
 716 625 l 1,2,-1
 716 5 l 1,3,-1
 436 5 l 1,4,-1
 436 625 l 1,5,-1
 70 1271 l 1,0,-1
766 1271 m 1,6,-1
 1051 1271 l 1,7,-1
 801 788 l 1,8,-1
 647 1062 l 1,9,-1
 766 1271 l 1,6,-1
EndSplineSet
Validated: 1
EndChar

StartChar: Z
Encoding: 90 90 24
Width: 1067
VWidth: 0
Flags: MW
LayerCount: 2
Fore
SplineSet
962 1271 m 1,0,-1
 962 1022 l 1,1,-1
 632 1022 l 1,2,-1
 490 1022 l 1,3,-1
 118 1022 l 1,4,-1
 118 1271 l 1,5,-1
 962 1271 l 1,0,-1
528 874 m 1,6,-1
 858 874 l 1,7,-1
 527 402 l 1,8,-1
 197 402 l 1,9,-1
 528 874 l 1,6,-1
93 253 m 1,10,-1
 423 253 l 1,11,-1
 627 253 l 1,12,-1
 937 253 l 1,13,-1
 937 5 l 1,14,-1
 93 5 l 1,15,-1
 93 253 l 1,10,-1
EndSplineSet
Validated: 1
EndChar

StartChar: K
Encoding: 75 75 25
Width: 1211
VWidth: 0
Flags: MW
LayerCount: 2
Fore
SplineSet
363 836 m 1,0,-1
 363 505 l 1,1,-1
 363 5 l 1,2,-1
 115 5 l 1,3,-1
 115 1271 l 1,4,-1
 363 1271 l 1,5,-1
 363 836 l 1,0,-1
834 5 m 1,6,-1
 513 505 l 1,7,-1
 513 836 l 1,8,-1
 798 1271 l 1,9,-1
 1105 1271 l 1,10,-1
 716 671 l 1,11,-1
 1138 5 l 1,12,-1
 834 5 l 1,6,-1
EndSplineSet
Validated: 1
EndChar

StartChar: one
Encoding: 49 49 27
Width: 707
VWidth: 0
Flags: MW
LayerCount: 2
Fore
SplineSet
335 1271 m 1,0,-1
 344 1262 l 1,1,-1
 588 1262 l 1,2,-1
 588 -4 l 1,3,-1
 340 -4 l 1,4,-1
 340 906 l 1,5,-1
 251 807 l 1,6,-1
 67 973 l 1,7,-1
 335 1271 l 1,0,-1
EndSplineSet
Validated: 1
EndChar

StartChar: zero
Encoding: 48 48 28
Width: 1137
VWidth: 0
Flags: MW
LayerCount: 2
Fore
SplineSet
509 1271 m 1,0,-1
 509 1012 l 1,1,2
 459 985 459 985 419 926 c 0,3,4
 335 803 335 803 335 618 c 128,-1,5
 335 433 335 433 419 310 c 0,6,7
 459 251 459 251 509 224 c 1,8,-1
 509 -34 l 1,9,10
 420 -19 420 -19 344.5 35.5 c 128,-1,11
 269 90 269 90 214 171 c 0,12,13
 87 358 87 358 87 618 c 128,-1,14
 87 878 87 878 214 1065 c 0,15,16
 269 1146 269 1146 345 1201 c 128,-1,17
 421 1256 421 1256 509 1271 c 1,0,-1
658 1266 m 1,18,19
 739 1246 739 1246 808 1193 c 128,-1,20
 877 1140 877 1140 928 1065 c 0,21,22
 1055 878 1055 878 1055 618 c 128,-1,23
 1055 358 1055 358 928 171 c 0,24,25
 820 11 820 11 658 -29 c 1,26,-1
 658 240 l 1,27,28
 693 265 693 265 723 310 c 0,29,30
 807 433 807 433 807 618 c 128,-1,31
 807 803 807 803 723 926 c 0,32,33
 691 973 691 973 658 997 c 1,34,-1
 658 1266 l 1,18,19
EndSplineSet
Validated: 1
EndChar

StartChar: two
Encoding: 50 50 29
Width: 958
VWidth: 0
Flags: MW
LayerCount: 2
Fore
SplineSet
630 525 m 1,0,-1
 258 -7 l 1,1,-1
 129 -7 l 1,2,-1
 129 232 l 1,3,4
 206 340 206 340 302 464.5 c 128,-1,5
 398 589 398 589 479.5 692 c 128,-1,6
 561 795 561 795 581 821 c 0,7,8
 618 871 618 871 618 901 c 0,9,10
 618 927 618 927 601 955 c 0,11,12
 580 990 580 990 550 1009 c 1,13,-1
 550 1271 l 1,14,15
 647 1252 647 1252 723 1188 c 0,16,17
 788 1135 788 1135 826 1059 c 0,18,19
 853 1003 853 1003 853 940 c 0,20,21
 853 830 853 830 778 737 c 1,22,-1
 630 525 l 1,0,-1
401 1271 m 1,23,-1
 401 1008 l 1,24,25
 369 988 369 988 349.5 952.5 c 128,-1,26
 330 917 330 917 330 874 c 1,27,-1
 82 874 l 1,28,29
 82 1018 82 1018 173 1130.5 c 128,-1,30
 264 1243 264 1243 401 1271 c 1,23,-1
873 235 m 1,31,-1
 874 -7 l 1,32,-1
 440 -7 l 1,33,-1
 608 234 l 1,34,-1
 873 235 l 1,31,-1
EndSplineSet
Validated: 1
EndChar

StartChar: three
Encoding: 51 51 30
Width: 958
VWidth: 0
Flags: MW
LayerCount: 2
Fore
SplineSet
412 1271 m 1,0,-1
 412 1000 l 1,1,2
 379 979 379 979 359.5 942.5 c 128,-1,3
 340 906 340 906 340 861 c 1,4,-1
 92 861 l 1,5,6
 92 1011 92 1011 183 1127 c 128,-1,7
 274 1243 274 1243 412 1271 c 1,0,-1
561 1268 m 1,8,9
 646 1247 646 1247 720.5 1190 c 128,-1,10
 795 1133 795 1133 835 1053 c 0,11,12
 862 994 862 994 862 928 c 0,13,14
 862 815 862 815 788 720 c 0,15,16
 775 699 775 699 764.5 685.5 c 128,-1,17
 754 672 754 672 742 659.5 c 128,-1,18
 730 647 730 647 724 639 c 1,19,20
 729 634 729 634 741.5 620 c 128,-1,21
 754 606 754 606 764 592.5 c 128,-1,22
 774 579 774 579 788 558 c 0,23,24
 862 463 862 463 862 350 c 0,25,26
 862 284 862 284 835 225 c 0,27,28
 794 143 794 143 723.5 88 c 128,-1,29
 653 33 653 33 561 11 c 1,30,-1
 561 279 l 1,31,32
 594 300 594 300 611 333 c 0,33,34
 622 354 622 354 622 380 c 0,35,36
 622 452 622 452 548.5 520.5 c 128,-1,37
 475 589 475 589 393 589 c 2,38,-1
 387 589 l 1,39,-1
 387 718 l 1,40,41
 405 718 405 718 432.5 724.5 c 128,-1,42
 460 731 460 731 493 745 c 128,-1,43
 526 759 526 759 554.5 778 c 128,-1,44
 583 797 583 797 602.5 827 c 128,-1,45
 622 857 622 857 622 891 c 0,46,47
 622 918 622 918 611 945 c 0,48,49
 594 978 594 978 561 999 c 1,50,-1
 561 1268 l 1,8,9
92 417 m 1,51,-1
 340 417 l 1,52,53
 340 372 340 372 359.5 335.5 c 128,-1,54
 379 299 379 299 412 278 c 1,55,-1
 412 7 l 1,56,57
 274 35 274 35 183 151 c 128,-1,58
 92 267 92 267 92 417 c 1,51,-1
EndSplineSet
Validated: 1
EndChar

StartChar: four
Encoding: 52 52 31
Width: 1024
VWidth: 0
Flags: MW
LayerCount: 2
Fore
SplineSet
656 1271 m 1,0,-1
 905 1271 l 1,1,-1
 905 3 l 1,2,-1
 656 3 l 1,3,-1
 656 1271 l 1,0,-1
507 1111 m 1,4,-1
 507 725 l 1,5,-1
 401 599 l 1,6,-1
 507 599 l 1,7,-1
 507 351 l 1,8,-1
 85 351 l 1,9,-1
 85 609 l 1,10,-1
 507 1111 l 1,4,-1
EndSplineSet
Validated: 1
EndChar

StartChar: five
Encoding: 53 53 32
Width: 1024
VWidth: 0
Flags: MW
LayerCount: 2
Fore
SplineSet
542 1271 m 1,0,-1
 890 1271 l 1,1,-1
 890 1022 l 1,2,-1
 542 1022 l 1,3,-1
 542 1271 l 1,0,-1
145 1271 m 1,4,-1
 394 1271 l 1,5,-1
 394 873 l 1,6,-1
 493 873 l 2,7,8
 604 873 604 873 701.5 821.5 c 128,-1,9
 799 770 799 770 861.5 679.5 c 128,-1,10
 924 589 924 589 937 479 c 0,11,12
 940 453.5 940 453.5 940 428 c 0,13,14
 940 274 940 274 843.5 151 c 128,-1,15
 747 28 747 28 596 -8 c 2,16,-1
 594 -8.5 l 1,17,-1
 592 -9 l 1,18,-1
 592 254 l 1,19,20
 638 280 638 280 665 325.5 c 128,-1,21
 692 371 692 371 692 425 c 0,22,23
 692 434 692 434 690 450 c 0,24,25
 681 526 681 526 625 575.5 c 128,-1,26
 569 625 569 625 493 625 c 2,27,-1
 145 625 l 1,28,-1
 145 1271 l 1,4,-1
306 359 m 1,29,30
 323 312 323 312 359.5 279 c 128,-1,31
 396 246 396 246 443 234 c 1,32,-1
 443 -17 l 1,33,34
 318 -3 318 -3 217.5 75 c 128,-1,35
 117 153 117 153 73 274 c 1,36,-1
 306 359 l 1,29,30
EndSplineSet
Validated: 1
EndChar

StartChar: six
Encoding: 54 54 33
Width: 972
VWidth: 0
Flags: MW
LayerCount: 2
Fore
SplineSet
560 0 m 1,0,-1
 560 260 l 1,1,2
 597 280 597 280 619 316 c 128,-1,3
 641 352 641 352 641 396 c 0,4,5
 641 445 641 445 614.5 484 c 128,-1,6
 588 523 588 523 544 541 c 1,7,8
 582 646 582 646 641 768 c 1,9,10
 752 722 752 722 820.5 620.5 c 128,-1,11
 889 519 889 519 889 396 c 0,12,13
 889 250 889 250 795 138 c 128,-1,14
 701 26 701 26 560 0 c 1,0,-1
412 0 m 1,15,16
 271 26 271 26 177 138 c 128,-1,17
 83 250 83 250 83 396 c 0,18,19
 83 413 83 413 85 431.5 c 128,-1,20
 87 450 87 450 89 464.5 c 128,-1,21
 91 479 91 479 96 500 c 128,-1,22
 101 521 101 521 104 532.5 c 128,-1,23
 107 544 107 544 115 568.5 c 128,-1,24
 123 593 123 593 126 601.5 c 128,-1,25
 129 610 129 610 139 638.5 c 128,-1,26
 149 667 149 667 152 674 c 0,27,28
 202 802 202 802 285 970 c 0,29,30
 328 1057 328 1057 372.5 1132 c 128,-1,31
 417 1207 417 1207 439.5 1239 c 2,32,-1
 462 1271 l 1,33,-1
 728 1271 l 1,34,35
 720 1257 720 1257 680.5 1187.5 c 128,-1,36
 641 1118 641 1118 626 1091 c 128,-1,37
 611 1064 611 1064 582 1009 c 128,-1,38
 553 954 553 954 532.5 910 c 128,-1,39
 512 866 512 866 495 822 c 0,40,41
 417 656 417 656 365 495 c 1,42,43
 333 453 333 453 331 396 c 2,44,-1
 331 393 l 2,45,46
 331 350 331 350 353 315 c 128,-1,47
 375 280 375 280 412 260 c 1,48,-1
 412 0 l 1,15,16
EndSplineSet
Validated: 1
EndChar

StartChar: bracketleft
Encoding: 91 91 34
Width: 656
VWidth: 0
Flags: MW
LayerCount: 2
Fore
SplineSet
118 1271 m 1,0,-1
 565 1271 l 1,1,-1
 565 1022 l 1,2,-1
 366 1022 l 1,3,-1
 366 228 l 1,4,-1
 565 228 l 1,5,-1
 565 -20 l 1,6,-1
 118 -20 l 1,7,-1
 118 -8 l 1,8,-1
 118 228 l 1,9,-1
 118 1022 l 1,10,-1
 118 1258 l 1,11,-1
 118 1271 l 1,0,-1
EndSplineSet
Validated: 1
EndChar

StartChar: bracketright
Encoding: 93 93 35
Width: 657
VWidth: 0
Flags: MW
LayerCount: 2
Fore
SplineSet
551 -20 m 1,0,-1
 104 -20 l 1,1,-1
 104 229 l 1,2,-1
 303 229 l 1,3,-1
 303 1023 l 1,4,-1
 104 1023 l 1,5,-1
 104 1271 l 1,6,-1
 551 1271 l 1,7,-1
 551 1259 l 1,8,-1
 551 1023 l 1,9,-1
 551 229 l 1,10,-1
 551 -7 l 1,11,-1
 551 -20 l 1,0,-1
EndSplineSet
Validated: 1
EndChar

StartChar: backslash
Encoding: 92 92 36
Width: 1045
VWidth: 0
Flags: MW
LayerCount: 2
Fore
SplineSet
344 1271 m 1,0,-1
 977 5 l 1,1,-1
 703 0 l 1,2,-1
 67 1271 l 1,3,-1
 344 1271 l 1,0,-1
EndSplineSet
Validated: 1
EndChar

StartChar: slash
Encoding: 47 47 37
Width: 1047
VWidth: 0
Flags: MW
LayerCount: 2
Fore
SplineSet
635 1271 m 1,0,-1
 912 1271 l 1,1,-1
 276 0 l 1,2,-1
 0 5 l 1,3,-1
 635 1271 l 1,0,-1
EndSplineSet
Validated: 1
EndChar

StartChar: seven
Encoding: 55 55 38
Width: 974
VWidth: 0
Flags: MW
LayerCount: 2
Fore
SplineSet
78 1271 m 1,0,-1
 897 1271 l 1,1,-1
 892 1023 l 1,2,-1
 78 1022 l 1,3,-1
 78 1271 l 1,0,-1
580 874 m 1,4,-1
 848 874 l 1,5,-1
 512 0 l 1,6,-1
 237 5 l 1,7,-1
 580 874 l 1,4,-1
EndSplineSet
Validated: 1
EndChar

StartChar: eight
Encoding: 56 56 39
Width: 979
VWidth: 0
Flags: MW
LayerCount: 2
Fore
SplineSet
416 1299 m 1,0,-1
 416 1029 l 1,1,2
 385 998 385 998 385 953 c 128,-1,3
 385 908 385 908 416 877 c 1,4,-1
 416 500 l 1,5,6
 379 480 379 480 357 443.5 c 128,-1,7
 335 407 335 407 335 363 c 128,-1,8
 335 319 335 319 357 283 c 128,-1,9
 379 247 379 247 416 227 c 1,10,-1
 416 -33 l 1,11,12
 275 -7 275 -7 181 105 c 128,-1,13
 87 217 87 217 87 363 c 0,14,15
 87 461 87 461 132 547 c 128,-1,16
 177 633 177 633 255 690 c 1,17,18
 137 797 137 797 137 953 c 0,19,20
 137 1078 137 1078 216.5 1175.5 c 128,-1,21
 296 1273 296 1273 416 1299 c 1,0,-1
565 1299 m 1,22,23
 685 1273 685 1273 764.5 1175.5 c 128,-1,24
 844 1078 844 1078 844 953 c 0,25,26
 844 797 844 797 726 690 c 1,27,28
 804 633 804 633 849 547 c 128,-1,29
 894 461 894 461 894 363 c 0,30,31
 894 217 894 217 800 105 c 128,-1,32
 706 -7 706 -7 565 -33 c 1,33,-1
 565 227 l 1,34,35
 602 247 602 247 623.5 283 c 128,-1,36
 645 319 645 319 645 363 c 128,-1,37
 645 407 645 407 623.5 443.5 c 128,-1,38
 602 480 602 480 565 500 c 1,39,-1
 565 877 l 1,40,41
 596 908 596 908 596 953 c 128,-1,42
 596 998 596 998 565 1029 c 1,43,-1
 565 1299 l 1,22,23
EndSplineSet
Validated: 1
EndChar

StartChar: nine
Encoding: 57 57 40
Width: 972
VWidth: 0
Flags: MW
LayerCount: 2
Fore
SplineSet
412 1271 m 1,0,-1
 412 1011 l 1,1,2
 375 991 375 991 353 955 c 128,-1,3
 331 919 331 919 331 875 c 0,4,5
 331 826 331 826 357.5 787 c 128,-1,6
 384 748 384 748 428 730 c 1,7,8
 390 625 390 625 331 503 c 1,9,10
 220 549 220 549 151.5 650.5 c 128,-1,11
 83 752 83 752 83 875 c 0,12,13
 83 1021 83 1021 177 1133 c 128,-1,14
 271 1245 271 1245 412 1271 c 1,0,-1
560 1271 m 1,15,16
 701 1245 701 1245 795 1133 c 128,-1,17
 889 1021 889 1021 889 875 c 0,18,19
 889 858 889 858 887 839.5 c 128,-1,20
 885 821 885 821 883 806.5 c 128,-1,21
 881 792 881 792 876 771 c 128,-1,22
 871 750 871 750 868 738.5 c 128,-1,23
 865 727 865 727 857 702.5 c 128,-1,24
 849 678 849 678 846 669.5 c 128,-1,25
 843 661 843 661 833 632.5 c 128,-1,26
 823 604 823 604 820 597 c 0,27,28
 770 469 770 469 687 301 c 0,29,30
 644 214 644 214 599.5 139 c 128,-1,31
 555 64 555 64 532.5 32 c 2,32,-1
 510 0 l 1,33,-1
 244 0 l 1,34,35
 252 14 252 14 291.5 83.5 c 128,-1,36
 331 153 331 153 346 180 c 128,-1,37
 361 207 361 207 390 262 c 128,-1,38
 419 317 419 317 439.5 361 c 128,-1,39
 460 405 460 405 477 449 c 0,40,41
 555 615 555 615 607 776 c 1,42,43
 639 818 639 818 641 875 c 2,44,-1
 641 878 l 2,45,46
 641 921 641 921 619 956 c 128,-1,47
 597 991 597 991 560 1011 c 1,48,-1
 560 1271 l 1,15,16
EndSplineSet
Validated: 1
EndChar

StartChar: colon
Encoding: 58 58 41
Width: 439
VWidth: 0
Flags: MW
LayerCount: 2
Fore
SplineSet
98 748 m 128,-1,1
 98 800 98 800 134 836 c 128,-1,2
 170 872 170 872 222 872 c 128,-1,3
 274 872 274 872 310 836 c 128,-1,4
 346 800 346 800 346 748 c 128,-1,5
 346 696 346 696 310 660 c 128,-1,6
 274 624 274 624 222 624 c 128,-1,7
 170 624 170 624 134 660 c 128,-1,0
 98 696 98 696 98 748 c 128,-1,1
98 333 m 128,-1,9
 98 385 98 385 134 421 c 128,-1,10
 170 457 170 457 222 457 c 128,-1,11
 274 457 274 457 310 421 c 128,-1,12
 346 385 346 385 346 333 c 128,-1,13
 346 281 346 281 310 244.5 c 128,-1,14
 274 208 274 208 222 208 c 128,-1,15
 170 208 170 208 134 244.5 c 128,-1,8
 98 281 98 281 98 333 c 128,-1,9
EndSplineSet
Validated: 1
EndChar

StartChar: semicolon
Encoding: 59 59 42
Width: 440
VWidth: 0
Flags: MW
LayerCount: 2
Fore
SplineSet
98 754 m 128,-1,1
 98 806 98 806 134 842 c 128,-1,2
 170 878 170 878 222 878 c 128,-1,3
 274 878 274 878 310 842 c 128,-1,4
 346 806 346 806 346 754 c 128,-1,5
 346 702 346 702 310 666 c 128,-1,6
 274 630 274 630 222 630 c 128,-1,7
 170 630 170 630 134 666 c 128,-1,0
 98 702 98 702 98 754 c 128,-1,1
222 463 m 128,-1,9
 274 463 274 463 310 427 c 128,-1,10
 346 391 346 391 346 339 c 0,11,12
 345 243 345 243 280.5 160 c 128,-1,13
 216 77 216 77 122 68 c 1,14,15
 139 78 139 78 164 122.5 c 128,-1,16
 189 167 189 167 206 216 c 1,17,18
 160 222 160 222 129 257 c 128,-1,19
 98 292 98 292 98 339 c 0,20,21
 98 391 98 391 134 427 c 128,-1,8
 170 463 170 463 222 463 c 128,-1,9
EndSplineSet
Validated: 1
EndChar

StartChar: period
Encoding: 46 46 43
Width: 439
VWidth: 0
Flags: MW
LayerCount: 2
Fore
SplineSet
71 155 m 128,-1,1
 71 216 71 216 114.5 260 c 128,-1,2
 158 304 158 304 220 304 c 128,-1,3
 282 304 282 304 325.5 260 c 128,-1,4
 369 216 369 216 369 155 c 128,-1,5
 369 94 369 94 325.5 50 c 128,-1,6
 282 6 282 6 220 6 c 128,-1,7
 158 6 158 6 114.5 50 c 128,-1,0
 71 94 71 94 71 155 c 128,-1,1
EndSplineSet
Validated: 1
EndChar

StartChar: comma
Encoding: 44 44 44
Width: 440
VWidth: 0
Flags: MW
LayerCount: 2
Fore
SplineSet
222 300 m 128,-1,1
 284 300 284 300 327.5 256 c 128,-1,2
 371 212 371 212 371 151 c 0,3,4
 370 36 370 36 292.5 -63.5 c 128,-1,5
 215 -163 215 -163 102 -174 c 1,6,7
 123 -162 123 -162 152 -108.5 c 128,-1,8
 181 -55 181 -55 203 4 c 1,9,10
 147 12 147 12 110 53.5 c 128,-1,11
 73 95 73 95 73 151 c 0,12,13
 73 212 73 212 116.5 256 c 128,-1,0
 160 300 160 300 222 300 c 128,-1,1
EndSplineSet
Validated: 1
EndChar

StartChar: hyphen
Encoding: 45 45 45
Width: 517
VWidth: 0
Flags: MW
LayerCount: 2
Fore
SplineSet
68 436 m 1,0,-1
 452 436 l 1,1,-1
 452 276 l 1,2,-1
 68 276 l 1,3,-1
 68 436 l 1,0,-1
EndSplineSet
Validated: 1
EndChar

StartChar: equal
Encoding: 61 61 46
Width: 985
VWidth: 0
Flags: MW
LayerCount: 2
Fore
SplineSet
109 891 m 1,0,-1
 880 891 l 1,1,-1
 880 642 l 1,2,-1
 109 642 l 1,3,-1
 109 891 l 1,0,-1
109 493 m 1,4,-1
 880 493 l 1,5,-1
 880 245 l 1,6,-1
 109 245 l 1,7,-1
 109 493 l 1,4,-1
EndSplineSet
Validated: 1
EndChar

StartChar: exclam
Encoding: 33 33 47
Width: 488
VWidth: 0
Flags: MW
LayerCount: 2
Fore
SplineSet
121 1271 m 1,0,-1
 369 1271 l 1,1,-1
 369 501 l 1,2,-1
 121 501 l 1,3,-1
 121 1271 l 1,0,-1
245 303 m 128,-1,5
 306 303 306 303 350 259.5 c 128,-1,6
 394 216 394 216 394 154 c 128,-1,7
 394 92 394 92 350 48.5 c 128,-1,8
 306 5 306 5 245 5 c 128,-1,9
 184 5 184 5 140 48.5 c 128,-1,10
 96 92 96 92 96 154 c 128,-1,11
 96 216 96 216 140 259.5 c 128,-1,4
 184 303 184 303 245 303 c 128,-1,5
EndSplineSet
Validated: 1
EndChar

StartChar: quotedbl
Encoding: 34 34 48
Width: 924
VWidth: 0
Flags: MW
LayerCount: 2
Fore
SplineSet
104 1271 m 1,0,-1
 352 1271 l 1,1,-1
 327 799 l 1,2,-1
 129 799 l 1,3,-1
 104 1271 l 1,0,-1
576 1271 m 1,4,-1
 824 1271 l 1,5,-1
 799 799 l 1,6,-1
 600 799 l 1,7,-1
 576 1271 l 1,4,-1
EndSplineSet
Validated: 1
EndChar

StartChar: numbersign
Encoding: 35 35 49
Width: 1404
VWidth: 0
Flags: MW
LayerCount: 2
Fore
SplineSet
367 1134 m 1,0,-1
 615 1134 l 1,1,-1
 522 67 l 1,2,-1
 274 67 l 1,3,-1
 289 241 l 1,4,-1
 60 241 l 1,5,-1
 109 489 l 1,6,-1
 310 489 l 1,7,-1
 330 712 l 1,8,-1
 122 712 l 1,9,-1
 171 961 l 1,10,-1
 352 961 l 1,11,-1
 367 1134 l 1,0,-1
913 1134 m 1,12,-1
 1161 1134 l 1,13,-1
 1146 961 l 1,14,-1
 1313 961 l 1,15,-1
 1264 712 l 1,16,-1
 1124 712 l 1,17,-1
 1105 489 l 1,18,-1
 1251 489 l 1,19,-1
 1201 241 l 1,20,-1
 1083 241 l 1,21,-1
 1068 67 l 1,22,-1
 820 67 l 1,23,-1
 835 241 l 1,24,-1
 684 241 l 1,25,-1
 707 489 l 1,26,-1
 857 489 l 1,27,-1
 876 712 l 1,28,-1
 728 712 l 1,29,-1
 751 961 l 1,30,-1
 898 961 l 1,31,-1
 913 1134 l 1,12,-1
EndSplineSet
Validated: 1
EndChar

StartChar: dollar
Encoding: 36 36 50
Width: 844
VWidth: 0
Flags: MW
LayerCount: 2
Fore
SplineSet
308 1271 m 1,0,-1
 557 1271 l 1,1,-1
 557 1122 l 1,2,-1
 308 1122 l 1,3,-1
 308 1271 l 1,0,-1
358 1026 m 1,4,-1
 358 817 l 1,5,6
 326 798 326 798 326 751 c 0,7,8
 326 709 326 709 358 687 c 1,9,-1
 358 486 l 1,10,11
 298 499 298 499 258 514.5 c 128,-1,12
 218 530 218 530 175 564 c 0,13,14
 142 594 142 594 123 644.5 c 128,-1,15
 104 695 104 695 104 751 c 0,16,17
 104 860 104 860 171 926 c 0,18,19
 214 969 214 969 257 993 c 128,-1,20
 300 1017 300 1017 358 1026 c 1,4,-1
507 1026 m 1,21,22
 578 1013 578 1013 632 992 c 128,-1,23
 686 971 686 971 748 924 c 1,24,-1
 649 771 l 1,25,26
 611 813 611 813 507 827 c 1,27,-1
 507 1026 l 1,21,22
507 648 m 1,28,29
 623 621 623 621 690.5 537 c 128,-1,30
 758 453 758 453 758 349 c 0,31,32
 758 251 758 251 695 166.5 c 128,-1,33
 632 82 632 82 507 37 c 1,34,-1
 507 260 l 1,35,36
 555 291 555 291 555 347 c 0,37,38
 555 368 555 368 550 384 c 0,39,40
 538 413 538 413 507 434 c 1,41,-1
 507 648 l 1,28,29
259 296 m 1,42,43
 287 260 287 260 358 239 c 1,44,-1
 358 29 l 1,45,46
 304 36 304 36 253.5 52 c 128,-1,47
 203 68 203 68 153 101.5 c 128,-1,48
 103 135 103 135 79 180 c 1,49,-1
 259 296 l 1,42,43
308 -70 m 1,50,-1
 557 -70 l 1,51,-1
 557 -219 l 1,52,-1
 308 -219 l 1,53,-1
 308 -70 l 1,50,-1
EndSplineSet
Validated: 1
EndChar

StartChar: percent
Encoding: 37 37 51
Width: 1272
VWidth: 0
Flags: MW
LayerCount: 2
Fore
SplineSet
841 1254 m 1,0,-1
 1117 1230 l 1,1,-1
 373 19 l 1,2,-1
 100 48 l 1,3,-1
 841 1254 l 1,0,-1
273 1266 m 0,4,5
 342 1266 342 1266 388.5 1218.5 c 128,-1,6
 435 1171 435 1171 435 1105 c 0,7,8
 435 1036 435 1036 387 989.5 c 128,-1,9
 339 943 339 943 273 943 c 0,10,11
 204 943 204 943 158 991 c 128,-1,12
 112 1039 112 1039 112 1105 c 0,13,14
 112 1174 112 1174 159.5 1220 c 128,-1,15
 207 1266 207 1266 273 1266 c 0,4,5
992 368 m 0,16,17
 1061 368 1061 368 1107 320.5 c 128,-1,18
 1153 273 1153 273 1153 207 c 0,19,20
 1153 138 1153 138 1105.5 92 c 128,-1,21
 1058 46 1058 46 992 46 c 0,22,23
 923 46 923 46 877 93.5 c 128,-1,24
 831 141 831 141 831 207 c 0,25,26
 831 276 831 276 878.5 322 c 128,-1,27
 926 368 926 368 992 368 c 0,16,17
EndSplineSet
Validated: 1
EndChar

StartChar: less
Encoding: 60 60 52
Width: 671
VWidth: 0
Flags: MW
LayerCount: 2
Fore
SplineSet
317 956 m 1,0,-1
 594 956 l 1,1,-1
 321 559 l 1,2,-1
 594 161 l 1,3,-1
 317 161 l 1,4,-1
 73 559 l 1,5,-1
 317 956 l 1,0,-1
EndSplineSet
Validated: 1
EndChar

StartChar: underscore
Encoding: 95 95 53
Width: 1506
VWidth: 0
Flags: MW
LayerCount: 2
Fore
SplineSet
216 273 m 1,0,-1
 1507 273 l 1,1,-1
 1507 0 l 1,2,-1
 216 0 l 1,3,-1
 216 273 l 1,0,-1
EndSplineSet
Validated: 1
EndChar

StartChar: asciicircum
Encoding: 94 94 54
Width: 1072
VWidth: 0
Flags: MW
LayerCount: 2
Fore
SplineSet
378 1271 m 1,0,-1
 417 1271 l 1,1,-1
 656 1271 l 1,2,-1
 694 1271 l 1,3,-1
 992 676 l 1,4,-1
 714 676 l 1,5,-1
 536 1032 l 1,6,-1
 358 676 l 1,7,-1
 81 676 l 1,8,-1
 378 1271 l 1,0,-1
EndSplineSet
Validated: 1
EndChar

StartChar: grave
Encoding: 96 96 55
Width: 637
VWidth: 0
Flags: MW
LayerCount: 2
Fore
SplineSet
358 1271 m 1,0,-1
 555 824 l 1,1,-1
 331 824 l 1,2,-1
 81 1271 l 1,3,-1
 358 1271 l 1,0,-1
EndSplineSet
Validated: 1
EndChar

StartChar: quotesingle
Encoding: 39 39 56
Width: 477
VWidth: 0
Flags: MW
LayerCount: 2
Fore
SplineSet
378 1271 m 1,0,-1
 352 824 l 1,1,-1
 129 824 l 1,2,-1
 101 1271 l 1,3,-1
 378 1271 l 1,0,-1
EndSplineSet
Validated: 1
EndChar

StartChar: parenleft
Encoding: 40 40 57
Width: 682
VWidth: 0
Flags: MW
LayerCount: 2
Fore
SplineSet
310 1271 m 1,0,-1
 611 1271 l 1,1,2
 342 945 342 945 342 638 c 128,-1,3
 342 331 342 331 611 5 c 1,4,-1
 310 5 l 1,5,6
 86 330 86 330 86 638 c 128,-1,7
 86 946 86 946 310 1271 c 1,0,-1
EndSplineSet
Validated: 1
EndChar

StartChar: parenright
Encoding: 41 41 58
Width: 678
VWidth: 0
Flags: MW
LayerCount: 2
Fore
SplineSet
356 1271 m 1,0,1
 580 946 580 946 580 638 c 128,-1,2
 580 330 580 330 356 5 c 1,3,-1
 55 5 l 1,4,5
 324 331 324 331 324 638 c 128,-1,6
 324 945 324 945 55 1271 c 1,7,-1
 356 1271 l 1,0,1
EndSplineSet
Validated: 1
EndChar

StartChar: asterisk
Encoding: 42 42 59
Width: 1289
VWidth: 0
Flags: MW
LayerCount: 2
Fore
SplineSet
520 1075 m 1,0,-1
 768 1075 l 1,1,-1
 768 33 l 1,2,-1
 520 33 l 1,3,-1
 520 1075 l 1,0,-1
251 957 m 1,4,-1
 371 836 l 1,5,-1
 371 274 l 1,6,-1
 250 153 l 1,7,-1
 75 330 l 1,8,-1
 301 554 l 1,9,-1
 74 782 l 1,10,-1
 251 957 l 1,4,-1
1039 957 m 1,11,-1
 1215 782 l 1,12,-1
 988 554 l 1,13,-1
 1214 330 l 1,14,-1
 1039 153 l 1,15,-1
 918 274 l 1,16,-1
 918 836 l 1,17,-1
 1039 957 l 1,11,-1
EndSplineSet
Validated: 1
EndChar

StartChar: plus
Encoding: 43 43 60
Width: 920
VWidth: 0
Flags: MW
LayerCount: 2
Fore
SplineSet
335 914 m 1,0,-1
 583 914 l 1,1,-1
 583 678 l 1,2,-1
 819 678 l 1,3,-1
 819 430 l 1,4,-1
 583 430 l 1,5,-1
 583 194 l 1,6,-1
 335 194 l 1,7,-1
 335 430 l 1,8,-1
 99 430 l 1,9,-1
 99 678 l 1,10,-1
 335 678 l 1,11,-1
 335 914 l 1,0,-1
EndSplineSet
Validated: 1
EndChar

StartChar: ampersand
Encoding: 38 38 61
Width: 1484
VWidth: 0
Flags: MW
LayerCount: 2
Fore
SplineSet
481 1271 m 1,0,-1
 481 997 l 1,1,2
 431 951 431 951 431 911 c 0,3,4
 431 870 431 870 481 824 c 1,5,-1
 481 447 l 1,6,7
 434 409 434 409 395.5 361.5 c 128,-1,8
 357 314 357 314 357 290 c 0,9,10
 357 251 357 251 391.5 224 c 128,-1,11
 426 197 426 197 481 186 c 1,12,-1
 481 -52 l 1,13,14
 378 -39 378 -39 270 23 c 0,15,16
 191 67 191 67 137.5 135.5 c 128,-1,17
 84 204 84 204 84 295 c 0,18,19
 86 340 86 340 108 385.5 c 128,-1,20
 130 431 130 431 172.5 477.5 c 128,-1,21
 215 524 215 524 246 553 c 128,-1,22
 277 582 277 582 330.160413416 627.036776879 c 0,23,24
 344 638 344 638 350 644 c 1,25,26
 341 652 341 652 312.5 677 c 128,-1,27
 284 702 284 702 270.5 714 c 128,-1,28
 257 726 257 726 234 750.5 c 128,-1,29
 211 775 211 775 198.5 793.5 c 128,-1,30
 186 812 186 812 174 838 c 128,-1,31
 162 864 162 864 158 890 c 1,32,33
 159 935 159 935 181.5 983 c 128,-1,34
 204 1031 204 1031 244.5 1077 c 128,-1,35
 285 1123 285 1123 323.5 1158.5 c 128,-1,36
 362 1194 362 1194 412 1234 c 1,37,38
 453 1261 453 1261 481 1271 c 1,0,-1
630 1271 m 1,39,40
 653 1262 653 1262 699 1234 c 0,41,42
 797 1166 797 1166 870.5 1077.5 c 128,-1,43
 944 989 944 989 953 890 c 0,44,45
 952 873 952 873 945 854 c 128,-1,46
 938 835 938 835 929.5 819.5 c 128,-1,47
 921 804 921 804 903.5 783.5 c 128,-1,48
 886 763 886 763 875 751.5 c 128,-1,49
 864 740 864 740 839.5 718 c 128,-1,50
 815 696 815 696 805 688.5 c 128,-1,51
 795 681 795 681 767.5 658.5 c 128,-1,52
 740 636 740 636 735 632 c 1,53,54
 871 512 871 512 908 476 c 1,55,56
 940 517 940 517 953 547 c 1,57,-1
 1201 539 l 1,58,59
 1199 484 1199 484 1165.5 418.5 c 128,-1,60
 1132 353 1132 353 1083 298 c 1,61,62
 1336 58 1336 58 1424 -33 c 1,63,-1
 1077 -33 l 1,64,-1
 908 123 l 1,65,66
 787 -16 787 -16 630 -47 c 1,67,-1
 630 186 l 1,68,69
 685 197 685 197 719.5 224 c 128,-1,70
 754 251 754 251 754 290 c 0,71,72
 754 314 754 314 715.5 361.5 c 128,-1,73
 677 409 677 409 630 447 c 1,74,-1
 630 824 l 1,75,76
 680 870 680 870 680 911 c 0,77,78
 680 951 680 951 630 997 c 1,79,-1
 630 1271 l 1,39,40
EndSplineSet
Validated: 1
EndChar

StartChar: question
Encoding: 63 63 62
Width: 1055
VWidth: 0
Flags: MW
LayerCount: 2
Fore
SplineSet
365 108 m 128,-1,1
 365 168 365 168 408 211 c 128,-1,2
 451 254 451 254 511 254 c 128,-1,3
 571 254 571 254 613.5 211 c 128,-1,4
 656 168 656 168 656 108 c 128,-1,5
 656 48 656 48 613.5 5 c 128,-1,6
 571 -38 571 -38 511 -38 c 128,-1,7
 451 -38 451 -38 408 5 c 128,-1,0
 365 48 365 48 365 108 c 128,-1,1
446 1271 m 1,8,-1
 446 1007 l 1,9,10
 370 971 370 971 248 842 c 1,11,12
 218 871 218 871 157.5 927 c 128,-1,13
 97 983 97 983 67 1012 c 1,14,15
 135 1083 135 1083 216 1147 c 0,16,17
 278 1200 278 1200 330 1231 c 128,-1,18
 382 1262 382 1262 446 1271 c 1,8,-1
595 1266 m 1,19,20
 679 1250 679 1250 759 1211.5 c 128,-1,21
 839 1173 839 1173 895 1115 c 0,22,23
 976 1032 976 1032 976 918 c 0,24,25
 976 857 976 857 948 804 c 0,26,27
 937 782 937 782 923.5 761.5 c 128,-1,28
 910 741 910 741 892 720.5 c 128,-1,29
 874 700 874 700 860.5 685.5 c 128,-1,30
 847 671 847 671 823 649.5 c 128,-1,31
 799 628 799 628 787.5 618 c 128,-1,32
 776 608 776 608 747 584 c 128,-1,33
 718 560 718 560 709 553 c 0,34,35
 704 549 704 549 689.5 537.5 c 128,-1,36
 675 526 675 526 667.5 519.5 c 128,-1,37
 660 513 660 513 649.5 502 c 128,-1,38
 639 491 639 491 634.5 479.5 c 128,-1,39
 630 468 630 468 629 455 c 2,40,-1
 629 418 l 1,41,-1
 629 356 l 1,42,-1
 381 356 l 1,43,-1
 381 529 l 2,44,45
 381 574 381 574 408 610 c 0,46,47
 432 637 432 637 489 679 c 128,-1,48
 546 721 546 721 597 756 c 128,-1,49
 648 791 648 791 688 832 c 128,-1,50
 728 873 728 873 728 902 c 0,51,52
 728 935 728 935 688.5 964.5 c 128,-1,53
 649 994 649 994 595 1012 c 1,54,-1
 595 1266 l 1,19,20
EndSplineSet
Validated: 1
EndChar

StartChar: a
Encoding: 97 97 63
Width: 1005
VWidth: 0
Flags: MW
LayerCount: 2
Fore
SplineSet
668 839 m 1,0,-1
 917 839 l 1,1,-1
 917 0 l 1,2,-1
 668 0 l 1,3,-1
 668 839 l 1,0,-1
509 838 m 1,4,-1
 509 596 l 1,5,6
 457 592 457 592 398 512 c 128,-1,7
 339 432 339 432 339 357 c 0,8,9
 339 304 339 304 377.5 271.5 c 128,-1,10
 416 239 416 239 501 239 c 2,11,-1
 509 239 l 1,12,-1
 509 0 l 1,13,-1
 462 0 l 2,14,15
 257 0 257 0 176 56.5 c 128,-1,16
 95 113 95 113 89 274 c 1,17,-1
 89 289 l 2,18,19
 89 376 89 376 114.5 464.5 c 128,-1,20
 140 553 140 553 189 633 c 128,-1,21
 238 713 238 713 321.5 769 c 128,-1,22
 405 825 405 825 509 838 c 1,4,-1
EndSplineSet
Validated: 1
EndChar

StartChar: b
Encoding: 98 98 64
Width: 1135
VWidth: 0
Flags: MW
LayerCount: 2
UndoRedoHistory
Layer: 1
Undoes
UndoOperation
Index: 0
Type: 3
WasModified: 0
WasOrder2: 1
Layer: 2
EndUndoOperation
EndUndoes
Redoes
EndRedoes
EndUndoRedoHistory
Fore
SplineSet
109 1290 m 1,0,-1
 357 1290 l 1,1,-1
 357 808 l 1,2,3
 426 848 426 848 508 862 c 1,4,-1
 508 607 l 1,5,6
 451 586 451 586 416.5 535.5 c 128,-1,7
 382 485 382 485 382 421 c 128,-1,8
 382 357 382 357 416.5 307 c 128,-1,9
 451 257 451 257 508 236 c 1,10,-1
 508 -19 l 1,11,12
 426 -5 426 -5 357 35 c 1,13,-1
 357 -16 l 1,14,-1
 109 -16 l 1,15,-1
 109 1290 l 1,0,-1
657 862 m 1,16,17
 815 834 815 834 921 709 c 128,-1,18
 1027 584 1027 584 1027 421 c 128,-1,19
 1027 258 1027 258 921 133.5 c 128,-1,20
 815 9 815 9 657 -19 c 1,21,-1
 657 238 l 1,22,23
 712 261 712 261 745.5 310 c 128,-1,24
 779 359 779 359 779 421 c 128,-1,25
 779 483 779 483 745.5 532.5 c 128,-1,26
 712 582 712 582 657 605 c 1,27,-1
 657 862 l 1,16,17
EndSplineSet
EndChar

StartChar: c
Encoding: 99 99 65
Width: 988
VWidth: 0
Flags: MW
LayerCount: 2
Fore
SplineSet
601 869 m 1,0,1
 691 855 691 855 770 806.5 c 128,-1,2
 849 758 849 758 902 681 c 1,3,-1
 697 540 l 1,4,5
 662 592 662 592 601 614 c 1,6,-1
 601 869 l 1,0,1
452 867 m 1,7,-1
 452 609 l 1,8,9
 401 586 401 586 369 539.5 c 128,-1,10
 337 493 337 493 335 436 c 2,11,-1
 335 428 l 2,12,13
 335 369 335 369 366.5 319.5 c 128,-1,14
 398 270 398 270 452 246 c 1,15,-1
 452 -12 l 1,16,17
 410 -4 410 -4 374 10 c 0,18,19
 244 59 244 59 165.5 173.5 c 128,-1,20
 87 288 87 288 87 427 c 2,21,-1
 87 446 l 1,22,23
 93 590 93 590 182.5 703.5 c 128,-1,24
 272 817 272 817 410 857 c 0,25,26
 424 861 424 861 452 867 c 1,7,-1
687 301 m 1,27,-1
 879 144 l 1,28,29
 771 12 771 12 601 -14 c 1,30,-1
 601 241 l 1,31,32
 653 260 653 260 687 301 c 1,27,-1
EndSplineSet
Validated: 1
EndChar

StartChar: d
Encoding: 100 100 66
Width: 1135
VWidth: 0
Flags: MW
LayerCount: 2
Fore
SplineSet
779 1288 m 1,0,-1
 1027 1288 l 1,1,-1
 1027 -19 l 1,2,-1
 779 -19 l 1,3,-1
 779 33 l 1,4,5
 714 -5 714 -5 637 -20 c 1,6,-1
 637 237 l 1,7,8
 690 261 690 261 722 310 c 128,-1,9
 754 359 754 359 754 419 c 128,-1,10
 754 479 754 479 722 527.5 c 128,-1,11
 690 576 690 576 637 600 c 1,12,-1
 637 858 l 1,13,14
 714 843 714 843 779 805 c 1,15,-1
 779 1288 l 1,0,-1
488 861 m 1,16,-1
 488 606 l 1,17,18
 429 585 429 585 393 534.5 c 128,-1,19
 357 484 357 484 357 419 c 128,-1,20
 357 354 357 354 393 303.5 c 128,-1,21
 429 253 429 253 488 232 c 1,22,-1
 488 -23 l 1,23,24
 326 2 326 2 217.5 127.5 c 128,-1,25
 109 253 109 253 109 419 c 128,-1,26
 109 585 109 585 217.5 710.5 c 128,-1,27
 326 836 326 836 488 861 c 1,16,-1
EndSplineSet
Validated: 1
EndChar

StartChar: e
Encoding: 101 101 67
Width: 1022
VWidth: 0
Flags: MW
LayerCount: 2
Fore
SplineSet
442 880 m 1,0,-1
 442 640 l 1,1,2
 381 612 381 612 350 548 c 1,3,-1
 442 548 l 1,4,-1
 442 391 l 1,5,-1
 330 391 l 1,6,7
 340 340 340 340 370.5 299.5 c 128,-1,8
 401 259 401 259 442 239 c 1,9,-1
 442 -2 l 1,10,11
 399 6 399 6 361 22 c 0,12,13
 237 73 237 73 164.5 187 c 128,-1,14
 92 301 92 301 92 437 c 0,15,16
 92 489.5 92 489.5 104 542 c 0,17,18
 132 672 132 672 225.5 764.5 c 128,-1,19
 319 857 319 857 442 880 c 1,0,-1
590 878 m 1,20,21
 739 848 739 848 834 723 c 128,-1,22
 929 598 929 598 929 439 c 0,23,24
 929 431 929 431 929.5 415 c 128,-1,25
 930 399 930 399 930 391 c 1,26,-1
 590 391 l 1,27,-1
 590 548 l 1,28,-1
 672 548 l 1,29,30
 644 605 644 605 590 634 c 1,31,-1
 590 878 l 1,20,21
709 310 m 1,32,-1
 919 212 l 1,33,34
 875 119 875 119 786.5 61.5 c 128,-1,35
 698 4 698 4 590 -8 c 1,36,-1
 590 222 l 1,37,38
 676 240 676 240 709 310 c 1,32,-1
EndSplineSet
Validated: 1
EndChar

StartChar: p
Encoding: 112 112 68
Width: 1134
VWidth: 0
Flags: MW
LayerCount: 2
Fore
SplineSet
647 865 m 1,0,1
 809 840 809 840 917.5 714.5 c 128,-1,2
 1026 589 1026 589 1026 424 c 0,3,4
 1026 258 1026 258 917 132.5 c 128,-1,5
 808 7 808 7 647 -18 c 1,6,-1
 647 236 l 1,7,8
 705 256 705 256 741.5 307.5 c 128,-1,9
 778 359 778 359 778 424 c 128,-1,10
 778 489 778 489 741.5 540 c 128,-1,11
 705 591 705 591 647 611 c 1,12,-1
 647 865 l 1,0,1
498 863 m 1,13,-1
 498 605 l 1,14,15
 445 581 445 581 413 533 c 128,-1,16
 381 485 381 485 381 424 c 128,-1,17
 381 363 381 363 413 314.5 c 128,-1,18
 445 266 445 266 498 242 c 1,19,-1
 498 -16 l 1,20,21
 421 -1 421 -1 356 37 c 1,22,-1
 356 -445 l 1,23,-1
 108 -445 l 1,24,-1
 108 861 l 1,25,-1
 356 861 l 1,26,-1
 356 810 l 1,27,28
 421 848 421 848 498 863 c 1,13,-1
EndSplineSet
Validated: 1
EndChar

StartChar: q
Encoding: 113 113 69
Width: 1137
VWidth: 0
Flags: MW
LayerCount: 2
Fore
SplineSet
489 861 m 1,0,-1
 489 606 l 1,1,2
 431 586 431 586 394.5 535 c 128,-1,3
 358 484 358 484 358 419 c 128,-1,4
 358 354 358 354 394.5 303 c 128,-1,5
 431 252 431 252 489 232 c 1,6,-1
 489 -23 l 1,7,8
 327 2 327 2 218 128 c 128,-1,9
 109 254 109 254 109 419 c 128,-1,10
 109 584 109 584 218 710 c 128,-1,11
 327 836 327 836 489 861 c 1,0,-1
638 858 m 1,12,13
 715 843 715 843 780 805 c 1,14,-1
 780 856 l 1,15,-1
 1028 856 l 1,16,-1
 1028 -450 l 1,17,-1
 780 -450 l 1,18,-1
 780 33 l 1,19,20
 715 -5 715 -5 638 -20 c 1,21,-1
 638 237 l 1,22,23
 691 261 691 261 723 309.5 c 128,-1,24
 755 358 755 358 755 419 c 128,-1,25
 755 480 755 480 723 528.5 c 128,-1,26
 691 577 691 577 638 601 c 1,27,-1
 638 858 l 1,12,13
EndSplineSet
Validated: 1
EndChar

StartChar: s
Encoding: 115 115 70
Width: 792
VWidth: 0
Flags: MW
LayerCount: 2
Fore
SplineSet
473 892 m 1,0,1
 641 865 641 865 707 729 c 1,2,-1
 512 634 l 1,3,4
 502 653 502 653 473 666 c 1,5,-1
 473 892 l 1,0,1
324 887 m 1,6,-1
 324 671 l 1,7,8
 295 656 295 656 295 625 c 0,9,10
 295 602 295 602 320 584 c 128,-1,11
 345 566 345 566 385 553 c 128,-1,12
 425 540 425 540 473.5 526.5 c 128,-1,13
 522 513 522 513 570 494.5 c 128,-1,14
 618 476 618 476 658 452 c 128,-1,15
 698 428 698 428 723 389 c 128,-1,16
 748 350 748 350 748 300 c 0,17,18
 748 185 748 185 671 99 c 128,-1,19
 594 13 594 13 473 -13 c 1,20,-1
 473 207 l 1,21,22
 532 229 532 229 532 276 c 0,23,24
 532 296 532 296 507 312.5 c 128,-1,25
 482 329 482 329 441.5 342.5 c 128,-1,26
 401 356 401 356 352.5 371 c 128,-1,27
 304 386 304 386 255.5 407 c 128,-1,28
 207 428 207 428 166.5 455 c 128,-1,29
 126 482 126 482 101 523.5 c 128,-1,30
 76 565 76 565 76 617 c 0,31,32
 76 637 76 637 83 672 c 0,33,34
 100 741 100 741 167 802.5 c 128,-1,35
 234 864 234 864 324 887 c 1,6,-1
256 267 m 1,36,37
 259 254 259 254 277.5 239 c 128,-1,38
 296 224 296 224 324 213 c 1,39,-1
 324 -12 l 1,40,41
 234 8 234 8 159.5 66.5 c 128,-1,42
 85 125 85 125 45 217 c 1,43,-1
 256 267 l 1,36,37
EndSplineSet
Validated: 1
EndChar

StartChar: h
Encoding: 104 104 71
Width: 1053
VWidth: 0
Flags: MW
LayerCount: 2
Fore
SplineSet
114 1271 m 1,0,-1
 362 1271 l 1,1,-1
 362 801 l 1,2,3
 405 820 405 820 446 830 c 1,4,-1
 446 586 l 1,5,6
 406 564 406 564 384 524 c 128,-1,7
 362 484 362 484 362 449 c 2,8,-1
 362 0 l 1,9,-1
 114 0 l 1,10,-1
 114 1271 l 1,0,-1
595 841 m 1,11,12
 671 831 671 831 730 795 c 0,13,14
 822 739 822 739 881 651.5 c 128,-1,15
 940 564 940 564 940 468 c 2,16,-1
 940 0 l 1,17,-1
 692 0 l 1,18,-1
 692 430 l 2,19,20
 692 472 692 472 666 519 c 128,-1,21
 640 566 640 566 595 589 c 1,22,-1
 595 841 l 1,11,12
EndSplineSet
Validated: 1
EndChar

StartChar: n
Encoding: 110 110 72
Width: 1053
VWidth: 0
Flags: MW
LayerCount: 2
Fore
SplineSet
114 869 m 1,0,-1
 362 869 l 1,1,-1
 362 829 l 1,2,3
 404 848 404 848 445 858 c 1,4,-1
 445 614 l 1,5,6
 406 592 406 592 384 552.5 c 128,-1,7
 362 513 362 513 362 478 c 2,8,-1
 362 0 l 1,9,-1
 114 0 l 1,10,-1
 114 869 l 1,0,-1
594 870 m 1,11,12
 668 862 668 862 730 824 c 0,13,14
 820 769 820 769 880 679 c 128,-1,15
 940 589 940 589 940 497 c 2,16,-1
 940 0 l 1,17,-1
 692 0 l 1,18,-1
 692 459 l 2,19,20
 692 501 692 501 666 548 c 128,-1,21
 640 595 640 595 594 618 c 1,22,-1
 594 870 l 1,11,12
EndSplineSet
Validated: 1
EndChar

StartChar: m
Encoding: 109 109 73
Width: 1394
VWidth: 0
Flags: MW
LayerCount: 2
Fore
SplineSet
114 866 m 1,0,-1
 362 866 l 1,1,-1
 362 831 l 1,2,3
 382 838 382 838 388 839 c 1,4,-1
 388 564 l 1,5,6
 362 530 362 530 362 480 c 2,7,8
 362 -3 l 1,9,-1
 114 -3 l 1,10,-1
 114 866 l 1,0,-1
1001 865 m 1,11,12
 1068 851 1068 851 1118 812 c 0,13,14
 1193 755 1193 755 1237 662.5 c 128,-1,15
 1281 570 1281 570 1281 467 c 2,16,-1
 1281 0 l 1,17,-1
 1041 0 l 1,18,-1
 1041 326 l 1,19,20
 1041 480 l 2,21,22
 1041 536 1041 536 1001 574 c 1,23,-1
 1001 865 l 1,11,12
537 864 m 1,24,25
 596 851 596 851 649 812 c 0,26,27
 676 791 676 791 697 769 c 1,28,29
 705 778 705 778 723 794 c 0,30,31
 778 843 778 843 852 862 c 1,32,-1
 852 564 l 1,33,34
 820 529 820 529 820 480 c 2,35,-1
 820 0 l 1,36,-1
 572 0 l 1,37,38
 571 454 571 454 571 480 c 0,39,40
 571 530 571 530 537 567 c 1,41,-1
 537 864 l 1,24,25
EndSplineSet
Validated: 1
EndChar

StartChar: u
Encoding: 117 117 74
Width: 1058
VWidth: 0
Flags: MW
LayerCount: 2
Fore
SplineSet
694 856 m 1,0,-1
 942 856 l 1,1,-1
 942 0 l 1,2,-1
 694 0 l 1,3,-1
 694 41 l 1,4,5
 658 11 658 11 599 -5 c 1,6,-1
 599 232 l 1,7,8
 644 253 644 253 669 294 c 128,-1,9
 694 335 694 335 694 373 c 2,10,-1
 694 856 l 1,0,-1
115 853 m 1,11,-1
 364 853 l 1,12,-1
 364 402 l 2,13,14
 364 363 364 363 387 318.5 c 128,-1,15
 410 274 410 274 450 249 c 1,16,-1
 450 -5 l 1,17,18
 380 4 380 4 325 37 c 0,19,20
 235 92 235 92 175 182 c 128,-1,21
 115 272 115 272 115 364 c 2,22,-1
 115 853 l 1,11,-1
EndSplineSet
Validated: 1
EndChar

StartChar: g
Encoding: 103 103 75
Width: 1106
VWidth: 0
Flags: MW
LayerCount: 2
Fore
SplineSet
744 907 m 1,0,-1
 992 907 l 1,1,-1
 992 0 l 1,2,-1
 744 0 l 1,3,-1
 744 50 l 1,4,5
 683 19 683 19 615 9 c 1,6,-1
 615 265 l 1,7,8
 671 287 671 287 707.5 339 c 128,-1,9
 744 391 744 391 744 456 c 128,-1,10
 744 521 744 521 708 569 c 128,-1,11
 672 617 672 617 615 637 c 1,12,-1
 615 892 l 1,13,14
 683 882 683 882 744 851 c 1,15,-1
 744 907 l 1,0,-1
466 890 m 1,16,-1
 466 632 l 1,17,18
 413 609 413 609 380.5 560 c 128,-1,19
 348 511 348 511 348 450 c 128,-1,20
 348 389 348 389 380.5 340 c 128,-1,21
 413 291 413 291 466 268 c 1,22,-1
 466 11 l 1,23,24
 309 40 309 40 204 164 c 128,-1,25
 99 288 99 288 99 450 c 128,-1,26
 99 612 99 612 204 736.5 c 128,-1,27
 309 861 309 861 466 890 c 1,16,-1
744 -123 m 1,28,-1
 992 -123 l 1,29,-1
 992 -136 l 2,30,31
 992 -228 992 -228 926.5 -304 c 128,-1,32
 861 -380 861 -380 764 -420 c 0,33,34
 667 -459 667 -459 563 -461 c 2,35,-1
 556 -461 l 2,36,37
 458 -461 458 -461 361 -424 c 0,38,39
 258 -384 258 -384 191 -305 c 128,-1,40
 124 -226 124 -226 124 -125 c 1,41,-1
 373 -124 l 1,42,43
 373 -137 373 -137 391 -157 c 128,-1,44
 409 -177 409 -177 451 -193 c 0,45,46
 497 -211 497 -211 557 -211 c 0,47,48
 621 -211 621 -211 670 -191 c 0,49,50
 740 -162 740 -162 744 -123 c 1,28,-1
EndSplineSet
Validated: 1
EndChar

StartChar: i
Encoding: 105 105 76
Width: 535
VWidth: 0
Flags: MW
LayerCount: 2
Fore
SplineSet
268 1200 m 128,-1,1
 326 1200 326 1200 366.5 1159.5 c 128,-1,2
 407 1119 407 1119 407 1061 c 128,-1,3
 407 1003 407 1003 366.5 962.5 c 128,-1,4
 326 922 326 922 268 922 c 128,-1,5
 210 922 210 922 169 962.5 c 128,-1,6
 128 1003 128 1003 128 1061 c 128,-1,7
 128 1119 128 1119 169 1159.5 c 128,-1,0
 210 1200 210 1200 268 1200 c 128,-1,1
144 823 m 1,8,-1
 392 823 l 1,9,-1
 392 0 l 1,10,-1
 144 0 l 1,11,-1
 144 823 l 1,8,-1
EndSplineSet
Validated: 1
EndChar

StartChar: j
Encoding: 106 106 77
Width: 574
VWidth: 0
Flags: MW
LayerCount: 2
Fore
SplineSet
295 1188 m 128,-1,1
 353 1188 353 1188 393.5 1147.5 c 128,-1,2
 434 1107 434 1107 434 1049 c 128,-1,3
 434 991 434 991 393.5 950.5 c 128,-1,4
 353 910 353 910 295 910 c 128,-1,5
 237 910 237 910 196.5 950.5 c 128,-1,6
 156 991 156 991 156 1049 c 128,-1,7
 156 1107 156 1107 196.5 1147.5 c 128,-1,0
 237 1188 237 1188 295 1188 c 128,-1,1
60 -207 m 0,8,9
 104 -207 104 -207 137 -181 c 128,-1,10
 170 -155 170 -155 170 -121 c 2,11,-1
 170 -118 l 1,12,13
 170 807 l 1,14,-1
 418 807 l 1,15,16
 418 -129 l 1,17,18
 414 -263 414 -263 310.5 -359.5 c 128,-1,19
 207 -456 207 -456 60 -456 c 2,20,-1
 45 -456 l 2,21,22
 -23 -453 -23 -453 -83 -428 c 1,23,-1
 12 -198 l 1,24,25
 34.5 -207 34.5 -207 60 -207 c 0,8,9
EndSplineSet
Validated: 1
EndChar

StartChar: t
Encoding: 116 116 78
Width: 929
VWidth: 0
Flags: MW
LayerCount: 2
Fore
SplineSet
286 1082 m 1,0,-1
 534 1082 l 1,1,-1
 534 1056 l 1,2,3
 534 287 l 2,4,5
 534 283 534 283 533.5 274.5 c 128,-1,6
 533 266 533 266 533 262 c 0,7,8
 533 225 533 225 560 217 c 0,9,10
 562 217 562 217 566.5 216.5 c 128,-1,11
 571 216 571 216 573 216 c 0,12,13
 623 216 623 216 663 286 c 1,14,-1
 852 178 l 1,15,16
 801 89 801 89 719.5 44.5 c 128,-1,17
 638 0 638 0 554 0 c 2,18,-1
 540 0 l 2,19,20
 286 0 286 0 286 276 c 2,21,-1
 286 280 l 1,22,-1
 286 1082 l 1,0,-1
76 834 m 1,23,-1
 205 834 l 1,24,-1
 205 632 l 1,25,-1
 76 632 l 1,26,-1
 76 834 l 1,23,-1
615 834 m 1,27,-1
 772 834 l 1,28,-1
 772 632 l 1,29,-1
 615 632 l 1,30,-1
 615 834 l 1,27,-1
EndSplineSet
Validated: 1
EndChar

StartChar: f
Encoding: 102 102 79
Width: 834
VWidth: 0
Flags: MW
LayerCount: 2
Fore
SplineSet
472 1271 m 1,0,1
 553 1270 553 1270 631.5 1224 c 128,-1,2
 710 1178 710 1178 759 1092 c 1,3,-1
 570 984 l 1,4,5
 542 1054 542 1054 480 1054 c 0,6,7
 444 1054 444 1054 441 1005 c 2,8,-1
 441 935 l 1,9,-1
 193 935 l 1,10,-1
 193 991 l 2,11,12
 193 1056 193 1056 223 1114 c 0,13,14
 255 1173 255 1173 326 1221 c 128,-1,15
 397 1269 397 1269 472 1271 c 1,0,1
76 786 m 1,16,-1
 619 786 l 1,17,-1
 619 583 l 1,18,-1
 441 583 l 1,19,-1
 441 17 l 1,20,-1
 193 17 l 1,21,-1
 193 583 l 1,22,-1
 76 583 l 1,23,-1
 76 786 l 1,16,-1
EndSplineSet
Validated: 1
EndChar

StartChar: v
Encoding: 118 118 80
Width: 1096
VWidth: 0
Flags: MW
LayerCount: 2
Fore
SplineSet
347 823 m 1,0,-1
 681 48 l 1,1,-1
 662 4 l 1,2,-1
 435 4 l 1,3,-1
 77 822 l 1,4,-1
 347 823 l 1,0,-1
750 823 m 1,5,-1
 1020 822 l 1,6,-1
 763 235 l 1,7,-1
 629 547 l 1,8,-1
 750 823 l 1,5,-1
EndSplineSet
Validated: 1
EndChar

StartChar: y
Encoding: 121 121 81
Width: 1075
VWidth: 0
Flags: MW
LayerCount: 2
Fore
SplineSet
294 853 m 1,0,-1
 669 0 l 1,1,-1
 479 -445 l 1,2,-1
 209 -445 l 1,3,-1
 401 5 l 1,4,-1
 30 853 l 1,5,-1
 294 853 l 1,0,-1
739 853 m 1,6,-1
 1010 853 l 1,7,-1
 732 231 l 1,8,-1
 597 543 l 1,9,-1
 739 853 l 1,6,-1
EndSplineSet
Validated: 1
EndChar

StartChar: w
Encoding: 119 119 82
Width: 1337
VWidth: 0
Flags: MW
LayerCount: 2
Fore
SplineSet
81 857 m 1,0,-1
 337 857 l 1,1,-1
 361 702 l 1,2,-1
 208 298 l 1,3,-1
 81 857 l 1,0,-1
1065 48 m 1,4,-1
 1053 0 l 1,5,-1
 814 0 l 1,6,-1
 669 435 l 1,7,-1
 524 0 l 1,8,-1
 284 0 l 1,9,-1
 272 47 l 1,10,-1
 547 835 l 1,11,-1
 555 857 l 1,12,-1
 783 857 l 1,13,-1
 1065 48 l 1,4,-1
1000 857 m 1,14,-1
 1256 857 l 1,15,-1
 1130 299 l 1,16,-1
 977 703 l 1,17,-1
 1000 857 l 1,14,-1
EndSplineSet
Validated: 1
EndChar

StartChar: x
Encoding: 120 120 83
Width: 1076
VWidth: 0
Flags: MW
LayerCount: 2
Fore
SplineSet
96 814 m 1,0,-1
 405 814 l 1,1,-1
 1003 0 l 1,2,-1
 692 0 l 1,3,-1
 96 814 l 1,0,-1
678 814 m 1,4,-1
 985 814 l 1,5,-1
 782 548 l 1,6,-1
 636 749 l 1,7,-1
 678 814 l 1,4,-1
290 298 m 1,8,-1
 437 100 l 1,9,-1
 372 0 l 1,10,-1
 74 0 l 1,11,-1
 290 298 l 1,8,-1
EndSplineSet
Validated: 1
EndChar

StartChar: z
Encoding: 122 122 84
Width: 920
VWidth: 0
Flags: MW
LayerCount: 2
Fore
SplineSet
128 814 m 1,0,-1
 803 814 l 1,1,2
 805 810 805 810 805 736 c 0,3,4
 805 722 805 722 804.5 690 c 128,-1,5
 804 658 804 658 804 644 c 1,6,-1
 128 644 l 1,7,-1
 128 814 l 1,0,-1
382 533 m 1,8,-1
 765 533 l 1,9,10
 747 517 747 517 473 276 c 1,11,-1
 124 276 l 1,12,13
 315 467 315 467 382 533 c 1,8,-1
96 164 m 1,14,-1
 824 164 l 1,15,-1
 824 0 l 1,16,-1
 96 0 l 1,17,-1
 96 164 l 1,14,-1
EndSplineSet
Validated: 1
EndChar

StartChar: o
Encoding: 111 111 85
Width: 1089
VWidth: 0
Flags: MW
LayerCount: 2
Fore
SplineSet
470 867 m 1,0,-1
 470 611 l 1,1,2
 414 589 414 589 380 539.5 c 128,-1,3
 346 490 346 490 346 427 c 128,-1,4
 346 364 346 364 380 314 c 128,-1,5
 414 264 414 264 470 242 c 1,6,-1
 470 -14 l 1,7,8
 311 13 311 13 204.5 138 c 128,-1,9
 98 263 98 263 98 427 c 128,-1,10
 98 591 98 591 204.5 715.5 c 128,-1,11
 311 840 311 840 470 867 c 1,0,-1
619 867 m 1,12,13
 778 840 778 840 884.5 715.5 c 128,-1,14
 991 591 991 591 991 427 c 128,-1,15
 991 263 991 263 884.5 138 c 128,-1,16
 778 13 778 13 619 -14 c 1,17,-1
 619 242 l 1,18,19
 675 264 675 264 709 314 c 128,-1,20
 743 364 743 364 743 427 c 128,-1,21
 743 490 743 490 709 539.5 c 128,-1,22
 675 589 675 589 619 611 c 1,23,-1
 619 867 l 1,12,13
EndSplineSet
Validated: 1
EndChar

StartChar: tinyL
Encoding: 256 -1 86
Width: 314
VWidth: 0
Flags: MW
LayerCount: 2
Fore
SplineSet
77 819 m 1,0,-1
 175 819 l 1,1,-1
 237 819 l 1,2,-1
 237 0 l 1,3,-1
 77 0 l 1,4,-1
 77 819 l 1,0,-1
EndSplineSet
Validated: 1
EndChar

StartChar: r
Encoding: 114 114 87
Width: 884
VWidth: 0
Flags: MW
LayerCount: 2
Fore
SplineSet
50 866 m 1,0,-1
 296 866 l 1,1,-1
 296 4 l 1,2,-1
 50 4 l 1,3,-1
 50 866 l 1,0,-1
460 842 m 2,4,5
 565 842 565 842 661.5 780 c 128,-1,6
 758 718 758 718 816 618 c 1,7,-1
 601 493 l 1,8,9
 548 580 548 580 460 580 c 0,10,11
 450 580 450 580 445 579 c 1,12,-1
 445 842 l 1,13,-1
 460 842 l 2,4,5
EndSplineSet
Validated: 1
EndChar

StartChar: k
Encoding: 107 107 88
Width: 968
VWidth: 0
Flags: MW
LayerCount: 2
UndoRedoHistory
Layer: 1
Undoes
UndoOperation
Index: 0
Type: 1
WasModified: 0
WasOrder2: 1
Layer: 2
Width: 968
VWidth: 0
LBearingChange: 0
UnicodeEnc: 0
InstructionsLength: 0
SplineSet
94 1271 m 1,0,-1
 342 1271 l 1,1,-1
 342 0 l 1,2,-1
 94 0 l 1,3,-1
 94 1271 l 1,0,-1
652 838 m 1,4,-1
 959 838 l 1,5,-1
 638 409 l 1,6,-1
 953 -15 l 5,7,-1
 643 -15 l 5,8,-1
 490 196 l 1,9,-1
 490 588 l 1,10,-1
 652 838 l 1,4,-1
EndSplineSet
EndUndoOperation
EndUndoes
Redoes
EndRedoes
EndUndoRedoHistory
Fore
SplineSet
94 1271 m 1,0,-1
 342 1271 l 1,1,-1
 342 0 l 1,2,-1
 94 0 l 1,3,-1
 94 1271 l 1,0,-1
652 838 m 1,4,-1
 959 838 l 1,5,-1
 638 409 l 1,6,-1
 944 0 l 5,7,-1
 634 0 l 5,8,-1
 490 196 l 1,9,-1
 490 588 l 1,10,-1
 652 838 l 1,4,-1
EndSplineSet
EndChar

StartChar: greater
Encoding: 62 62 89
Width: 671
VWidth: 0
Flags: MW
LayerCount: 2
Fore
SplineSet
350 956 m 1,0,-1
 594 559 l 1,1,-1
 350 161 l 1,2,-1
 73 161 l 1,3,-1
 346 559 l 1,4,-1
 73 956 l 1,5,-1
 350 956 l 1,0,-1
EndSplineSet
Validated: 1
EndChar

StartChar: quoteright
Encoding: 146 8217 95
Width: 637
VWidth: 0
Flags: MW
LayerCount: 2
Fore
SplineSet
277 1271 m 1,0,-1
 554 1271 l 1,1,-1
 304 824 l 1,2,-1
 80 824 l 1,3,-1
 277 1271 l 1,0,-1
EndSplineSet
Validated: 1
EndChar

StartChar: exclamdown
Encoding: 161 161 99
Width: 488
VWidth: 0
Flags: MW
LayerCount: 2
Fore
SplineSet
121 4 m 1,0,-1
 121 774 l 1,1,-1
 369 774 l 1,2,-1
 369 4 l 1,3,-1
 121 4 l 1,0,-1
245 972 m 128,-1,5
 184 972 184 972 140 1016 c 128,-1,6
 96 1060 96 1060 96 1121 c 0,7,8
 96 1183 96 1183 140 1227 c 128,-1,9
 184 1271 184 1271 245 1271 c 128,-1,10
 306 1271 306 1271 350 1227 c 128,-1,11
 394 1183 394 1183 394 1121 c 0,12,13
 394 1060 394 1060 350 1016 c 128,-1,4
 306 972 306 972 245 972 c 128,-1,5
EndSplineSet
Validated: 1
EndChar

StartChar: Odieresis
Encoding: 214 214 109
Width: 1376
VWidth: 0
Flags: MW
LayerCount: 2
Fore
SplineSet
606 1294 m 1,0,-1
 606 1046 l 1,1,2
 540 1046 540 1046 478 997 c 128,-1,3
 416 948 416 948 376 854 c 0,4,5
 334 755 334 755 334 636 c 128,-1,6
 334 517 334 517 376 418 c 0,7,8
 416 324 416 324 478 275.5 c 128,-1,9
 540 227 540 227 606 227 c 1,10,-1
 606 -22 l 1,11,12
 459 -22 459 -22 336.5 72.5 c 128,-1,13
 214 167 214 167 148 320 c 0,14,15
 84 469 84 469 84 636 c 128,-1,16
 84 803 84 803 148 952 c 0,17,18
 214 1105 214 1105 336.5 1199.5 c 128,-1,19
 459 1294 459 1294 606 1294 c 1,0,-1
755 1294 m 1,20,21
 902 1294 902 1294 1024.5 1199.5 c 128,-1,22
 1147 1105 1147 1105 1213 952 c 0,23,24
 1278 801 1278 801 1278 636 c 128,-1,25
 1278 471 1278 471 1213 320 c 0,26,27
 1147 167 1147 167 1024.5 72.5 c 128,-1,28
 902 -22 902 -22 755 -22 c 1,29,-1
 755 227 l 1,30,31
 821 227 821 227 883 275.5 c 128,-1,32
 945 324 945 324 985 418 c 0,33,34
 1027 517 1027 517 1027 636 c 128,-1,35
 1027 755 1027 755 985 854 c 0,36,37
 945 948 945 948 883 997 c 128,-1,38
 821 1046 821 1046 755 1046 c 1,39,-1
 755 1294 l 1,20,21
696 1438 m 128,-1,41
 696 1496 696 1496 740 1537 c 128,-1,42
 784 1578 784 1578 845 1578 c 128,-1,43
 906 1578 906 1578 950 1537 c 128,-1,44
 994 1496 994 1496 994 1438 c 128,-1,45
 994 1380 994 1380 950 1339 c 128,-1,46
 906 1298 906 1298 845 1298 c 128,-1,47
 784 1298 784 1298 740 1339 c 128,-1,40
 696 1380 696 1380 696 1438 c 128,-1,41
356 1438 m 128,-1,49
 356 1496 356 1496 400 1537 c 128,-1,50
 444 1578 444 1578 505 1578 c 128,-1,51
 566 1578 566 1578 610 1537 c 128,-1,52
 654 1496 654 1496 654 1438 c 128,-1,53
 654 1380 654 1380 610 1339 c 128,-1,54
 566 1298 566 1298 505 1298 c 128,-1,55
 444 1298 444 1298 400 1339 c 128,-1,48
 356 1380 356 1380 356 1438 c 128,-1,49
EndSplineSet
Validated: 1
EndChar

StartChar: Udieresis
Encoding: 220 220 111
Width: 1186
VWidth: 0
Flags: MW
LayerCount: 2
Fore
SplineSet
106 1274 m 1,0,-1
 354 1274 l 1,1,-1
 354 503 l 2,2,3
 354 425 354 425 387.5 358.5 c 128,-1,4
 421 292 421 292 476 256 c 0,5,6
 494 244 494 244 513 236 c 1,7,-1
 513 -19 l 1,8,9
 419 -3 419 -3 341 48 c 0,10,11
 230 121 230 121 168 242 c 128,-1,12
 106 363 106 363 106 503 c 2,13,-1
 106 1274 l 1,0,-1
821 1274 m 1,14,-1
 1069 1274 l 1,15,-1
 1069 500 l 2,16,17
 1068 362 1068 362 1006 241 c 128,-1,18
 944 120 944 120 834 48 c 0,19,20
 756 -3 756 -3 662 -19 c 1,21,-1
 662 236 l 1,22,23
 678 243 678 243 698 256 c 0,24,25
 753 292 753 292 787 358.5 c 128,-1,26
 821 425 821 425 821 503 c 2,27,-1
 821 1274 l 1,14,-1
602 1432 m 128,-1,29
 602 1491 602 1491 646 1533.5 c 128,-1,30
 690 1576 690 1576 751 1576 c 128,-1,31
 812 1576 812 1576 856 1533.5 c 128,-1,32
 900 1491 900 1491 900 1432 c 128,-1,33
 900 1373 900 1373 856.5 1331 c 128,-1,34
 813 1289 813 1289 751 1289 c 128,-1,35
 689 1289 689 1289 645.5 1331 c 128,-1,28
 602 1373 602 1373 602 1432 c 128,-1,29
262 1432 m 128,-1,37
 262 1491 262 1491 306 1533.5 c 128,-1,38
 350 1576 350 1576 411 1576 c 128,-1,39
 472 1576 472 1576 516 1533.5 c 128,-1,40
 560 1491 560 1491 560 1432 c 128,-1,41
 560 1373 560 1373 516.5 1331 c 128,-1,42
 473 1289 473 1289 411 1289 c 128,-1,43
 349 1289 349 1289 305.5 1331 c 128,-1,36
 262 1373 262 1373 262 1432 c 128,-1,37
EndSplineSet
Validated: 1
EndChar

StartChar: uni0000
Encoding: 0 0 145
Width: 1376
VWidth: 0
Flags: MW
LayerCount: 2
Fore
SplineSet
688 1233 m 1,0,-1
 1280 641 l 1,1,-1
 688 49 l 1,2,-1
 96 641 l 1,3,-1
 688 1233 l 1,0,-1
688 1041 m 1,4,-1
 288 641 l 1,5,-1
 688 241 l 1,6,-1
 1088 641 l 1,7,-1
 688 1041 l 1,4,-1
684 873 m 0,8,9
 737 873 737 873 781 841 c 0,10,11
 836 801 836 801 836 737 c 0,12,13
 836 702 836 702 807 665 c 0,14,15
 786 639 786 639 756 617 c 0,16,17
 733 600 733 600 708 585 c 1,18,-1
 708 545 l 1,19,-1
 628 545 l 1,20,-1
 628 634 l 1,21,-1
 650 645 l 2,22,23
 679 660 679 660 708 681 c 0,24,25
 734 701 734 701 745 715 c 0,26,27
 756 728 756 728 756 737 c 0,28,29
 756 761 756 761 734 777 c 128,-1,30
 712 793 712 793 684 793 c 0,31,32
 660 793 660 793 646 779 c 0,33,34
 628 761 628 761 628 721 c 1,35,-1
 548 721 l 1,36,37
 548 794 548 794 589 835 c 0,38,39
 627 873 627 873 684 873 c 0,8,9
668 497 m 128,-1,41
 690 497 690 497 705 483 c 128,-1,42
 720 469 720 469 720 449 c 128,-1,43
 720 429 720 429 705 415 c 128,-1,44
 690 401 690 401 668 401 c 128,-1,45
 646 401 646 401 631 415 c 128,-1,46
 616 429 616 429 616 449 c 128,-1,47
 616 469 616 469 631 483 c 128,-1,40
 646 497 646 497 668 497 c 128,-1,41
EndSplineSet
Validated: 1
EndChar

StartChar: undottedi
Encoding: 257 -1 146
Width: 535
VWidth: 0
Flags: MW
LayerCount: 2
Fore
SplineSet
144 823 m 1,0,-1
 392 823 l 1,1,-1
 392 0 l 1,2,-1
 144 0 l 1,3,-1
 144 823 l 1,0,-1
EndSplineSet
Validated: 1
EndChar

StartChar: asciitilde
Encoding: 126 126 152
Width: 1053
VWidth: 0
Flags: MW
LayerCount: 2
Fore
SplineSet
702 1077 m 0,0,1
 756 1119 756 1119 816 1210 c 1,2,-1
 1023 1073 l 1,3,4
 942 951 942 951 865 890 c 0,5,6
 776 819 776 819 684 819 c 0,7,8
 661 819 661 819 638.5 823.5 c 128,-1,9
 616 828 616 828 598.5 833 c 128,-1,10
 581 838 581 838 561.5 849.5 c 128,-1,11
 542 861 542 861 530.5 868 c 128,-1,12
 519 875 519 875 501.5 890.5 c 128,-1,13
 484 906 484 906 477.5 912 c 128,-1,14
 471 918 471 918 454.5 935 c 128,-1,15
 438 952 438 952 435 955 c 128,-1,16
 432 958 432 958 427.624805118 962.399688189 c 0,17,18
 410 980 410 980 401 988.5 c 128,-1,19
 392 997 392 997 380.5 1004 c 128,-1,20
 369 1011 369 1011 359 1011 c 0,21,22
 346 1011 346 1011 335 1001 c 0,23,24
 289 964 289 964 229 874 c 1,25,-1
 22 1012 l 1,26,27
 103 1134 103 1134 180 1195 c 0,28,29
 269 1266 269 1266 361 1266 c 0,30,31
 387 1266 387 1266 411.5 1262 c 128,-1,32
 436 1258 436 1258 458 1247 c 128,-1,33
 480 1236 480 1236 495.5 1228.5 c 128,-1,34
 511 1221 511 1221 531 1203.5 c 128,-1,35
 551 1186 551 1186 558.5 1179.5 c 128,-1,36
 566 1173 566 1173 586 1152.5 c 128,-1,37
 606 1132 606 1132 608 1130 c 0,38,39
 619 1122 619 1122 634.5 1105.5 c 128,-1,40
 650 1089 650 1089 661.5 1079.5 c 128,-1,41
 673 1070 673 1070 684 1070 c 0,42,43
 694 1070 694 1070 702 1077 c 0,0,1
EndSplineSet
Validated: 1
EndChar

StartChar: Ccedilla
Encoding: 199 199 160
Width: 1041
VWidth: 0
Flags: MW
LayerCount: 2
Fore
SplineSet
646 1337 m 1,0,1
 837 1316 837 1316 974 1163 c 1,2,-1
 789 998 l 1,3,4
 723 1071 723 1071 646 1087 c 1,5,-1
 646 1337 l 1,0,1
497 1329 m 1,6,-1
 497 1067 l 1,7,8
 431 1033 431 1033 385 968 c 0,9,10
 301 853 301 853 301 679 c 0,11,12
 301 589 301 589 327 506 c 128,-1,13
 353 423 353 423 402 364 c 0,14,15
 447 310 447 310 497 286 c 1,16,-1
 497 25 l 1,17,18
 330 63 330 63 211 204 c 0,19,20
 129 302 129 302 86.5 423.5 c 128,-1,21
 44 545 44 545 44 675 c 0,22,23
 44 920 44 920 183 1113 c 0,24,25
 308 1287 308 1287 497 1329 c 1,6,-1
806 376 m 1,26,-1
 1003 225 l 1,27,28
 938 141 938 141 849 86 c 1,29,30
 840 64 840 64 830 23 c 0,31,32
 826 8 826 8 824 -10.5 c 128,-1,33
 822 -29 822 -29 821.5 -42 c 128,-1,34
 821 -55 821 -55 821 -56 c 0,35,36
 822 -57 822 -57 826 -62 c 128,-1,37
 830 -67 830 -67 837.5 -75.5 c 128,-1,38
 845 -84 845 -84 852 -92 c 0,39,40
 879 -122 879 -122 886 -131 c 0,41,42
 890 -136 890 -136 898.5 -140.5 c 128,-1,43
 907 -145 907 -145 911.5 -153 c 128,-1,44
 916 -161 916 -161 917 -179 c 2,45,-1
 917 -192 l 2,46,47
 917 -282 917 -282 844 -362 c 0,48,49
 762 -451 762 -451 647 -451 c 2,50,-1
 638 -451 l 1,51,-1
 645 -265 l 1,52,-1
 648 -265 l 2,53,54
 681 -265 681 -265 707 -236 c 0,55,56
 721 -221 721 -221 727 -201 c 1,57,58
 724 -197 724 -197 717 -190 c 128,-1,59
 710 -183 710 -183 694 -174.5 c 128,-1,60
 678 -166 678 -166 665 -153 c 128,-1,61
 652 -140 652 -140 644 -115 c 0,62,63
 632 -79 632 -79 632 -40 c 0,64,65
 632 -4 632 -4 646 52 c 1,66,-1
 646 266 l 1,67,68
 737 286 737 286 806 376 c 1,26,-1
EndSplineSet
Validated: 1
EndChar

StartChar: ccedilla
Encoding: 231 231 161
Width: 986
VWidth: 0
Flags: MW
LayerCount: 2
Fore
SplineSet
602 886 m 1,0,1
 793 855 793 855 901 699 c 1,2,-1
 696 558 l 1,3,4
 661 609 661 609 602 631 c 1,5,-1
 602 886 l 1,0,1
453 885 m 1,6,-1
 453 627 l 1,7,8
 401 604 401 604 368.5 557.5 c 128,-1,9
 336 511 336 511 334 454 c 2,10,-1
 334 444 l 2,11,12
 334 385 334 385 366.5 336 c 128,-1,13
 399 287 399 287 453 263 c 1,14,-1
 453 6 l 1,15,16
 409 14 409 14 373 28 c 0,17,18
 243 77 243 77 164.5 191.5 c 128,-1,19
 86 306 86 306 86 445 c 2,20,-1
 86 464 l 1,21,22
 92 608 92 608 181.5 721.5 c 128,-1,23
 271 835 271 835 409 875 c 0,24,25
 427 880 427 880 453 885 c 1,6,-1
686 319 m 1,26,-1
 878 161 l 1,27,28
 833 105 833 105 762 62 c 1,29,30
 757 47 757 47 751 26 c 0,31,32
 749 17 749 17 747.5 5 c 128,-1,33
 746 -7 746 -7 745.5 -15.5 c 128,-1,34
 745 -24 745 -24 745 -25 c 0,35,36
 751 -34 751 -34 765 -48 c 0,37,38
 784 -67 784 -67 790 -75 c 0,39,40
 812 -104 812 -104 814 -134 c 2,41,-1
 814 -143 l 2,42,43
 814 -210 814 -210 760 -266 c 0,44,45
 699 -329 699 -329 617 -329 c 2,46,-1
 611 -329 l 1,47,-1
 615 -189 l 1,48,49
 638 -190 638 -190 658 -170 c 0,50,51
 666 -162 666 -162 670 -151 c 0,52,53
 669 -150 669 -150 668 -148.5 c 128,-1,54
 667 -147 667 -147 666 -146 c 128,-1,55
 665 -145 665 -145 658 -138.5 c 128,-1,56
 651 -132 651 -132 648 -128.5 c 128,-1,57
 645 -125 645 -125 639 -118 c 128,-1,58
 633 -111 633 -111 629 -104.5 c 128,-1,59
 625 -98 625 -98 620 -89 c 128,-1,60
 615 -80 615 -80 612 -70 c 0,61,62
 603 -46 603 -46 603 -17 c 0,63,64
 603 -3 603 -3 604 4 c 1,65,-1
 602 4 l 1,66,-1
 602 259 l 1,67,68
 652 278 652 278 686 319 c 1,26,-1
EndSplineSet
Validated: 1
EndChar

StartChar: ae
Encoding: 230 230 162
Width: 1421
VWidth: 0
Flags: MW
LayerCount: 2
Fore
SplineSet
999 869 m 1,0,1
 1075 869 1075 869 1138.5 835 c 128,-1,2
 1202 801 1202 801 1247.5 740 c 128,-1,3
 1293 679 1293 679 1324.5 604.5 c 128,-1,4
 1356 530 1356 530 1375 441 c 1,5,-1
 1375 393 l 1,6,-1
 999 393 l 1,7,-1
 999 550 l 1,8,-1
 1117 550 l 1,9,10
 1103 579 1103 579 1066.5 605.5 c 128,-1,11
 1030 632 1030 632 999 636 c 1,12,-1
 999 869 l 1,0,1
583 865 m 1,13,-1
 831 865 l 1,14,-1
 831 -3 l 1,15,-1
 583 -3 l 1,16,-1
 583 865 l 1,13,-1
423 864 m 1,17,-1
 423 622 l 1,18,19
 371 618 371 618 312 531 c 128,-1,20
 253 444 253 444 253 363 c 0,21,22
 253 305 253 305 292 270 c 128,-1,23
 331 235 331 235 416 235 c 2,24,-1
 423 235 l 1,25,-1
 423 0 l 1,26,-1
 376 0 l 2,27,28
 170 0 170 0 89.5 55 c 128,-1,29
 9 110 9 110 3 271 c 1,30,-1
 3 286 l 2,31,32
 3 355 3 355 18.5 428.5 c 128,-1,33
 34 502 34 502 67.5 576 c 128,-1,34
 101 650 101 650 149 710 c 128,-1,35
 197 770 197 770 268 812 c 128,-1,36
 339 854 339 854 423 864 c 1,17,-1
1154 312 m 1,37,-1
 1365 214 l 1,38,39
 1323 124 1323 124 1210 60.5 c 128,-1,40
 1097 -3 1097 -3 1003 -3 c 2,41,-1
 999 -3 l 1,42,-1
 999 219 l 1,43,44
 1044 228 1044 228 1091 252.5 c 128,-1,45
 1138 277 1138 277 1154 312 c 1,37,-1
EndSplineSet
Validated: 1
EndChar

StartChar: AE
Encoding: 198 198 163
Width: 1669
VWidth: 0
Flags: MW
LayerCount: 2
Fore
SplineSet
759 1266 m 1,0,1
 1008 1266 l 1,2,-1
 1008 0 l 1,3,-1
 760 0 l 1,4,-1
 759 1266 l 1,0,1
1157 1266 m 1,5,-1
 1604 1266 l 1,6,-1
 1604 1018 l 1,7,-1
 1157 1018 l 1,8,-1
 1157 1266 l 1,5,-1
635 1050 m 1,9,-1
 635 633 l 1,10,-1
 582 541 l 1,11,-1
 636 541 l 1,12,-1
 636 293 l 1,13,-1
 451 293 l 1,14,-1
 276 -5 l 1,15,-1
 28 -5 l 1,16,-1
 635 1050 l 1,9,-1
1157 767 m 1,17,-1
 1529 767 l 1,18,-1
 1529 519 l 1,19,-1
 1157 519 l 1,20,-1
 1157 767 l 1,17,-1
1157 248 m 1,21,-1
 1604 248 l 1,22,-1
 1604 0 l 1,23,-1
 1157 0 l 1,24,-1
 1157 248 l 1,21,-1
EndSplineSet
Validated: 1
EndChar

StartChar: oe
Encoding: 156 339 165
Width: 2048
VWidth: 0
Flags: MW
LayerCount: 2
Fore
SplineSet
372 868 m 1,0,-1
 372 612 l 1,1,2
 316 590 316 590 282 540 c 128,-1,3
 248 490 248 490 248 427 c 128,-1,4
 248 364 248 364 282 314 c 128,-1,5
 316 264 316 264 372 242 c 1,6,-1
 372 -14 l 1,7,8
 213 13 213 13 106.5 138 c 128,-1,9
 0 263 0 263 0 427 c 128,-1,10
 0 591 0 591 106.5 716 c 128,-1,11
 213 841 213 841 372 868 c 1,0,-1
998 -22 m 1,12,13
 862 2 862 2 763 112 c 1,14,15
 663 10 663 10 521 -14 c 1,16,-1
 521 242 l 1,17,18
 577 264 577 264 611 314 c 128,-1,19
 645 364 645 364 645 427 c 128,-1,20
 645 490 645 490 611 540 c 128,-1,21
 577 590 577 590 521 612 c 1,22,-1
 521 868 l 1,23,24
 668 843 668 843 771 733 c 1,25,26
 868 836 868 836 998 860 c 1,27,-1
 998 620 l 1,28,29
 939 593 939 593 907 528 c 1,30,-1
 998 528 l 1,31,-1
 998 370 l 1,32,-1
 888 370 l 1,33,34
 888 366 888 366 889 363 c 0,35,36
 901 314 901 314 930 276 c 128,-1,37
 959 238 959 238 998 219 c 1,38,-1
 998 -22 l 1,12,13
1147 858 m 1,39,40
 1296 827 1296 827 1391 704 c 128,-1,41
 1486 581 1486 581 1486 422 c 2,42,-1
 1486 370 l 1,43,-1
 1147 370 l 1,44,-1
 1147 528 l 1,45,-1
 1228 528 l 1,46,47
 1199 585 1199 585 1147 614 c 1,48,-1
 1147 858 l 1,39,40
1265 290 m 1,49,-1
 1476 192 l 1,50,51
 1432 99 1432 99 1343.5 41.5 c 128,-1,52
 1255 -16 1255 -16 1147 -28 c 1,53,-1
 1147 202 l 1,54,55
 1232 219 1232 219 1265 290 c 1,49,-1
EndSplineSet
Validated: 1
EndChar

StartChar: cent
Encoding: 162 162 167
Width: 991
VWidth: 0
Flags: MW
LayerCount: 2
Fore
SplineSet
426 1302 m 1,0,-1
 636 1302 l 1,1,-1
 636 1056 l 1,2,-1
 426 1056 l 1,3,4
 426 1302 l 1,0,-1
603 913 m 1,5,6
 693 899 693 899 771 850 c 128,-1,7
 849 801 849 801 902 725 c 1,8,-1
 698 585 l 1,9,10
 664 635 664 635 603 658 c 1,11,-1
 603 913 l 1,5,6
454 912 m 1,12,-1
 454 654 l 1,13,14
 402 631 402 631 370 584.5 c 128,-1,15
 338 538 338 538 336 480 c 2,16,-1
 336 470 l 2,17,18
 336 411 336 411 368 362.5 c 128,-1,19
 400 314 400 314 454 290 c 1,20,-1
 454 32 l 1,21,22
 417 39 417 39 375 55 c 0,23,24
 245 104 245 104 166.5 218.5 c 128,-1,25
 88 333 88 333 88 472 c 2,26,-1
 88 491 l 1,27,28
 94 635 94 635 183.5 748 c 128,-1,29
 273 861 273 861 411 901 c 0,30,31
 447 911 447 911 454 912 c 1,12,-1
688 346 m 1,32,-1
 879 188 l 1,33,34
 772 58 772 58 603 31 c 1,35,-1
 603 286 l 1,36,37
 655 305 655 305 688 346 c 1,32,-1
426 -91 m 1,38,-1
 636 -91 l 1,39,-1
 636 -337 l 1,40,-1
 426 -337 l 1,41,-1
 426 -91 l 1,38,-1
EndSplineSet
Validated: 1
EndChar

StartChar: multiply
Encoding: 215 215 168
Width: 856
VWidth: 0
Flags: MW
LayerCount: 2
Fore
SplineSet
119 868 m 1,0,-1
 334 868 l 1,1,-1
 435 729 l 1,2,-1
 526 868 l 1,3,-1
 741 868 l 1,4,-1
 532 594 l 1,5,-1
 754 298 l 1,6,-1
 536 298 l 1,7,-1
 418 461 l 1,8,-1
 312 298 l 1,9,-1
 103 298 l 1,10,-1
 318 594 l 1,11,-1
 119 868 l 1,0,-1
EndSplineSet
Validated: 1
EndChar

StartChar: Oslash
Encoding: 216 216 169
Width: 1233
VWidth: 0
Flags: MW
LayerCount: 2
Fore
SplineSet
684 531 m 1,0,-1
 684 1316 l 1,1,2
 747 1316 747 1316 810 1297 c 1,3,-1
 886 1442 l 1,4,-1
 1168 1442 l 1,5,-1
 1019 1163 l 1,6,7
 1103 1074 1103 1074 1155.5 940 c 128,-1,8
 1208 806 1208 806 1208 658 c 0,9,10
 1208 530 1208 530 1167.5 409.5 c 128,-1,11
 1127 289 1127 289 1058.5 199 c 128,-1,12
 990 109 990 109 891.5 54.5 c 128,-1,13
 793 0 793 0 684 0 c 1,14,-1
 684 248 l 1,15,16
 750 248 750 248 812 297 c 128,-1,17
 874 346 874 346 914 440 c 0,18,19
 956 539 956 539 956 658 c 0,20,21
 956 809 956 809 892 922 c 1,22,-1
 684 531 l 1,0,-1
535 780 m 1,23,-1
 535 0 l 1,24,25
 474 0 474 0 412 19 c 1,26,-1
 335 -126 l 1,27,-1
 57 -121 l 1,28,-1
 202 152 l 1,29,30
 118 239 118 239 66 374 c 128,-1,31
 14 509 14 509 14 658 c 0,32,33
 14 830 14 830 81 981 c 128,-1,34
 148 1132 148 1132 269 1224 c 128,-1,35
 390 1316 390 1316 535 1316 c 1,36,-1
 535 1067 l 1,37,38
 469 1067 469 1067 407.5 1018.5 c 128,-1,39
 346 970 346 970 306 876 c 0,40,41
 264 777 264 777 264 658 c 0,42,43
 264 515 264 515 329 392 c 1,44,-1
 535 780 l 1,23,-1
EndSplineSet
Validated: 1
EndChar

StartChar: oslash
Encoding: 248 248 170
Width: 1005
VWidth: 0
Flags: MW
LayerCount: 2
Fore
SplineSet
823 918 m 1,0,-1
 980 918 l 1,1,-1
 829 734 l 1,2,3
 950 605 950 605 950 430 c 0,4,5
 950 266 950 266 843 141 c 128,-1,6
 736 16 736 16 577 -11 c 1,7,-1
 577 245 l 1,8,9
 633 267 633 267 667 317 c 128,-1,10
 701 367 701 367 701 430 c 128,-1,11
 701 493 701 493 669 540 c 1,12,-1
 576 427 l 1,13,-1
 576 870 l 1,14,15
 662 855 662 855 735 811 c 1,16,-1
 823 918 l 1,0,-1
428 870 m 1,17,-1
 428 614 l 1,18,19
 372 592 372 592 338 542 c 128,-1,20
 304 492 304 492 304 430 c 0,21,22
 304 371 304 371 334 324 c 1,23,-1
 428 438 l 1,24,-1
 428 -11 l 1,25,26
 343 4 343 4 267 51 c 1,27,-1
 158 -81 l 1,28,-1
 -0 -81 l 1,29,-1
 173 129 l 1,30,31
 56 257 56 257 56 430 c 0,32,33
 56 594 56 594 162.5 718.5 c 128,-1,34
 269 843 269 843 428 870 c 1,17,-1
EndSplineSet
Validated: 1
EndChar

StartChar: Thorn
Encoding: 222 222 171
Width: 1036
VWidth: 0
Flags: MW
LayerCount: 2
Fore
SplineSet
115 1266 m 1,0,-1
 363 1266 l 1,1,-1
 363 0 l 1,2,-1
 115 0 l 1,3,-1
 115 1266 l 1,0,-1
556 1088 m 1,4,5
 715 1061 715 1061 822 936.5 c 128,-1,6
 929 812 929 812 929 648 c 128,-1,7
 929 484 929 484 822 359 c 128,-1,8
 715 234 715 234 556 207 c 1,9,-1
 556 463 l 1,10,11
 612 485 612 485 646 535 c 128,-1,12
 680 585 680 585 680 648 c 128,-1,13
 680 711 680 711 646 760.5 c 128,-1,14
 612 810 612 810 556 832 c 1,15,-1
 556 1088 l 1,4,5
EndSplineSet
Validated: 1
EndChar

StartChar: germandbls
Encoding: 223 223 172
Width: 979
VWidth: 0
Flags: MW
LayerCount: 2
Fore
SplineSet
511 1262 m 1,0,1
 616 1242 616 1242 692 1164.5 c 128,-1,2
 768 1087 768 1087 784 982 c 0,3,4
 788 952 788 952 788 942 c 0,5,6
 788 899 788 899 756 819 c 0,7,8
 752 808 752 808 744.5 795 c 128,-1,9
 737 782 737 782 725 766.5 c 128,-1,10
 713 751 713 751 705 741 c 128,-1,11
 697 731 697 731 682 713 c 128,-1,12
 667 695 667 695 662 689 c 0,13,14
 630 651 630 651 630 631 c 0,15,16
 630 614 630 614 646 595 c 0,17,18
 660 579 660 579 691 561 c 128,-1,19
 722 543 722 543 751.5 525.5 c 128,-1,20
 781 508 781 508 810.5 482.5 c 128,-1,21
 840 457 840 457 858 414 c 128,-1,22
 876 371 876 371 876 314 c 0,23,24
 875 270 875 270 854.5 217.5 c 128,-1,25
 834 165 834 165 798.5 115.5 c 128,-1,26
 763 66 763 66 704.5 33 c 128,-1,27
 646 0 646 0 579 0 c 2,28,-1
 576 0 l 1,29,-1
 442 0 l 1,30,-1
 442 219 l 2,31,32
 444 219 444 219 465.5 219.5 c 128,-1,33
 487 220 487 220 515 220 c 128,-1,34
 543 220 543 220 563 220 c 0,35,36
 660 220 660 220 660 290 c 0,37,38
 660 314 660 314 633.5 335 c 128,-1,39
 607 356 607 356 569.5 376 c 128,-1,40
 532 396 532 396 495 422.5 c 128,-1,41
 458 449 458 449 431.5 496 c 128,-1,42
 405 543 405 543 405 605 c 0,43,44
 405 644 405 644 415 688 c 0,45,46
 422 712 422 712 444.5 739.5 c 128,-1,47
 467 767 467 767 490.5 788 c 128,-1,48
 514 809 514 809 536 839 c 128,-1,49
 558 869 558 869 563 899 c 0,50,51
 563 902 563 902 563.5 906.5 c 128,-1,52
 564 911 564 911 564 913 c 0,53,54
 564 981 564 981 511 1017 c 1,55,-1
 511 1262 l 1,0,1
387 1262 m 1,56,-1
 387 1024 l 1,57,58
 338 991 338 991 338 930 c 1,59,-1
 113 930 l 1,60,61
 113 1051 113 1051 191.5 1145 c 128,-1,62
 270 1239 270 1239 387 1262 c 1,56,-1
114 782 m 1,63,-1
 337 782 l 1,64,-1
 337 0 l 1,65,-1
 114 0 l 1,66,-1
 114 579 l 1,67,-1
 114 782 l 1,63,-1
EndSplineSet
Validated: 1
EndChar

StartChar: divide
Encoding: 247 247 173
Width: 889
VWidth: 0
Flags: MW
LayerCount: 2
Fore
SplineSet
294 216 m 128,-1,1
 294 278 294 278 338 321.5 c 128,-1,2
 382 365 382 365 443 365 c 128,-1,3
 504 365 504 365 548 321.5 c 128,-1,4
 592 278 592 278 592 216 c 128,-1,5
 592 154 592 154 548 110.5 c 128,-1,6
 504 67 504 67 443 67 c 128,-1,7
 382 67 382 67 338 110.5 c 128,-1,0
 294 154 294 154 294 216 c 128,-1,1
294 904 m 128,-1,9
 294 966 294 966 338 1009.5 c 128,-1,10
 382 1053 382 1053 443 1053 c 128,-1,11
 504 1053 504 1053 548 1009.5 c 128,-1,12
 592 966 592 966 592 904 c 128,-1,13
 592 842 592 842 548 798.5 c 128,-1,14
 504 755 504 755 443 755 c 128,-1,15
 382 755 382 755 338 798.5 c 128,-1,8
 294 842 294 842 294 904 c 128,-1,9
106 676 m 1,16,-1
 784 676 l 1,17,-1
 784 428 l 1,18,-1
 106 428 l 1,19,-1
 106 676 l 1,16,-1
EndSplineSet
Validated: 1
EndChar

StartChar: thorn
Encoding: 254 254 174
Width: 1033
VWidth: 0
Flags: MW
LayerCount: 2
Fore
SplineSet
113 1260 m 1,0,-1
 362 1260 l 1,1,-1
 362 -431 l 1,2,-1
 113 -431 l 1,3,-1
 113 1260 l 1,0,-1
555 864 m 1,4,5
 714 837 714 837 820.5 712.5 c 128,-1,6
 927 588 927 588 927 424 c 128,-1,7
 927 260 927 260 820.5 135 c 128,-1,8
 714 10 714 10 555 -17 c 1,9,-1
 555 239 l 1,10,11
 611 261 611 261 645 311 c 128,-1,12
 679 361 679 361 679 424 c 128,-1,13
 679 487 679 487 645 536.5 c 128,-1,14
 611 586 611 586 555 608 c 1,15,-1
 555 864 l 1,4,5
EndSplineSet
Validated: 1
EndChar

StartChar: eth
Encoding: 240 240 176
Width: 1110
VWidth: 0
Flags: MW
LayerCount: 2
Fore
SplineSet
810 1274 m 1,0,-1
 879 1153 l 1,1,2
 842 1148 842 1148 763 1103 c 1,3,4
 866 968 866 968 933 787.5 c 128,-1,5
 1000 607 1000 607 1000 422 c 2,6,-1
 1000 418 l 2,7,8
 1000 255 1000 255 894 130.5 c 128,-1,9
 788 6 788 6 629 -21 c 1,10,-1
 629 234 l 1,11,12
 685 256 685 256 719 306 c 128,-1,13
 753 356 753 356 753 418 c 0,14,15
 753 478 753 478 720.5 526 c 128,-1,16
 688 574 688 574 629 602 c 1,17,-1
 629 790 l 1,18,-1
 629 856 l 1,19,20
 587 942 587 942 558 986 c 1,21,22
 531 971 531 971 440 917 c 1,23,-1
 363 1033 l 1,24,25
 382 1045 382 1045 420 1066.5 c 128,-1,26
 458 1088 458 1088 473 1097 c 1,27,28
 386 1198 386 1198 283 1271 c 1,29,-1
 563 1271 l 1,30,31
 623 1239 623 1239 663 1206 c 1,32,33
 705 1230 705 1230 741.5 1247 c 128,-1,34
 778 1264 778 1264 794 1269 c 2,35,-1
 810 1274 l 1,0,-1
481 857 m 1,36,-1
 481 602 l 1,37,38
 425 580 425 580 391 530 c 128,-1,39
 357 480 357 480 357 418 c 128,-1,40
 357 356 357 356 391 306 c 128,-1,41
 425 256 425 256 481 234 c 1,42,-1
 481 -21 l 1,43,44
 322 6 322 6 216 130.5 c 128,-1,45
 110 255 110 255 110 418 c 128,-1,46
 110 581 110 581 216 705.5 c 128,-1,47
 322 830 322 830 481 857 c 1,36,-1
EndSplineSet
Validated: 1
EndChar

StartChar: Eth
Encoding: 208 208 177
Width: 1385
VWidth: 0
Flags: MW
LayerCount: 2
Fore
SplineSet
235 1266 m 1,0,-1
 484 1266 l 1,1,-1
 484 856 l 1,2,-1
 656 856 l 1,3,-1
 656 608 l 1,4,-1
 484 608 l 1,5,-1
 484 0 l 1,6,-1
 235 0 l 1,7,-1
 235 608 l 1,8,-1
 107 608 l 1,9,-1
 107 856 l 1,10,-1
 235 856 l 1,11,-1
 235 1266 l 1,0,-1
632 1266 m 1,12,-1
 707 1266 l 2,13,14
 825 1266 825 1266 932 1214 c 128,-1,15
 1039 1162 1039 1162 1114 1075.5 c 128,-1,16
 1189 989 1189 989 1233.5 872.5 c 128,-1,17
 1278 756 1278 756 1278 631 c 128,-1,18
 1278 506 1278 506 1234 390 c 128,-1,19
 1190 274 1190 274 1114.5 188 c 128,-1,20
 1039 102 1039 102 932 51 c 128,-1,21
 825 0 825 0 707 0 c 2,22,-1
 632 0 l 1,23,-1
 632 248 l 1,24,-1
 707 248 l 2,25,26
 838 248 838 248 934 358 c 128,-1,27
 1030 468 1030 468 1030 631 c 128,-1,28
 1030 794 1030 794 934 906 c 128,-1,29
 838 1018 838 1018 707 1018 c 2,30,-1
 632 1018 l 1,31,-1
 632 1266 l 1,12,-1
EndSplineSet
Validated: 1
EndChar

StartChar: tinyL2
Encoding: 258 -1 178
Width: 314
VWidth: 0
Flags: MW
LayerCount: 2
Fore
SplineSet
71 819 m 1,0,-1
 243 819 l 1,1,-1
 243 0 l 1,2,-1
 71 0 l 1,3,-1
 71 819 l 1,0,-1
EndSplineSet
Validated: 1
EndChar

StartChar: OE
Encoding: 140 338 179
Width: 1824
VWidth: 0
Flags: MW
LayerCount: 2
Fore
SplineSet
911 1266 m 1,0,-1
 1159 1266 l 1,1,-1
 1159 0 l 1,2,-1
 911 0 l 1,3,-1
 911 1266 l 1,0,-1
1308 1266 m 1,4,-1
 1755 1266 l 1,5,-1
 1755 1018 l 1,6,-1
 1308 1018 l 1,7,-1
 1308 1266 l 1,4,-1
732 1264 m 1,8,-1
 732 1016 l 1,9,10
 611 1016 611 1016 507 962.5 c 128,-1,11
 403 909 403 909 345 820 c 0,12,13
 288 733 288 733 288 636 c 0,14,15
 288 538 288 538 345 451 c 0,16,17
 403 362 403 362 507 309 c 128,-1,18
 611 256 611 256 732 256 c 1,19,-1
 732 7 l 1,20,21
 549 7 549 7 390.5 89 c 128,-1,22
 232 171 232 171 137 316 c 128,-1,23
 42 461 42 461 42 636 c 0,24,25
 42 810 42 810 137 955 c 128,-1,26
 232 1100 232 1100 390.5 1182 c 128,-1,27
 549 1264 549 1264 732 1264 c 1,8,-1
1308 767 m 1,28,-1
 1680 767 l 1,29,-1
 1680 519 l 1,30,-1
 1308 519 l 1,31,-1
 1308 767 l 1,28,-1
1308 248 m 1,32,-1
 1755 248 l 1,33,-1
 1755 -0 l 1,34,-1
 1308 -0 l 1,35,-1
 1308 248 l 1,32,-1
EndSplineSet
Validated: 1
EndChar

StartChar: NameMe.151
Encoding: 259 -1 182
Width: 1143
VWidth: 0
Flags: MW
LayerCount: 2
Fore
SplineSet
106 676 m 1,0,-1
 1038 676 l 1,1,-1
 1038 428 l 1,2,-1
 106 428 l 1,3,-1
 106 676 l 1,0,-1
EndSplineSet
Validated: 1
EndChar

StartChar: emdash
Encoding: 151 8212 183
Width: 1248
VWidth: 0
Flags: MW
LayerCount: 2
Fore
SplineSet
106 676 m 1,0,-1
 1143 676 l 1,1,-1
 1143 428 l 1,2,-1
 106 428 l 1,3,-1
 106 676 l 1,0,-1
EndSplineSet
Validated: 1
EndChar

StartChar: endash
Encoding: 150 8211 184
Width: 1041
VWidth: 0
Flags: MW
LayerCount: 2
Fore
SplineSet
106 676 m 1,0,-1
 937 676 l 1,1,-1
 937 428 l 1,2,-1
 106 428 l 1,3,-1
 106 676 l 1,0,-1
EndSplineSet
Validated: 1
EndChar

StartChar: braceleft
Encoding: 123 123 186
Width: 512
VWidth: 0
Flags: MW
LayerCount: 2
Fore
SplineSet
500 1241 m 1,0,-1
 500 993 l 1,1,2
 442 993 442 993 422.5 982 c 128,-1,3
 403 971 403 971 403 928 c 0,4,5
 403 919 403 919 407 877 c 0,6,7
 412 817 412 817 412 794 c 0,8,9
 412 706 412 706 372 636 c 0,10,11
 368 630 368 630 364.5 626.5 c 128,-1,12
 361 623 361 623 359 622 c 2,13,-1
 357 621 l 1,14,15
 364 618 364 618 372 605 c 0,16,17
 412 535 412 535 412 447 c 0,18,19
 412 424 412 424 407 364 c 0,20,21
 403 322 403 322 403 313 c 0,22,23
 403 270 403 270 422.5 259 c 128,-1,24
 442 248 442 248 500 248 c 1,25,-1
 500 0 l 1,26,27
 389 0 389 0 318 31 c 0,28,29
 233 68 233 68 192 141 c 128,-1,30
 151 214 151 214 151 299 c 0,31,32
 151 333 151 333 159 381 c 0,33,34
 163 405 163 405 163 429 c 0,35,36
 163 444 163 444 160.5 457 c 128,-1,37
 158 470 158 470 156 480 c 128,-1,38
 154 490 154 490 146.5 501 c 128,-1,39
 139 512 139 512 135.5 518.5 c 128,-1,40
 132 525 132 525 120 534 c 128,-1,41
 108 543 108 543 104 547 c 128,-1,42
 100 551 100 551 83.5 560 c 128,-1,43
 67 569 67 569 62.5 571.5 c 128,-1,44
 58 574 58 574 38 583.5 c 128,-1,45
 18 593 18 593 13 596 c 1,46,-1
 13 645 l 1,47,48
 19 648 19 648 30.7570792025 653.905651194 c 0,49,50
 68 673 68 673 85.5 683 c 128,-1,51
 103 693 103 693 124.5 712 c 128,-1,52
 146 731 146 731 154.5 755 c 128,-1,53
 163 779 163 779 163 813 c 0,54,55
 163 837 163 837 159 861 c 0,56,57
 151 909 151 909 151 943 c 0,58,59
 151 1027 151 1027 192 1100 c 128,-1,60
 233 1173 233 1173 318 1210 c 0,61,62
 389 1241 389 1241 500 1241 c 1,0,-1
EndSplineSet
Validated: 1
EndChar

StartChar: l
Encoding: 108 108 188
Width: 487
VWidth: 0
Flags: MW
LayerCount: 2
Fore
SplineSet
115 1271 m 1,0,-1
 363 1271 l 1,1,-1
 363 5 l 1,2,-1
 115 5 l 1,3,-1
 115 1271 l 1,0,-1
EndSplineSet
Validated: 1
EndChar

StartChar: bar
Encoding: 124 124 189
Width: 487
VWidth: 0
Flags: MW
LayerCount: 2
Fore
SplineSet
112 1443 m 1,0,-1
 360 1443 l 1,1,-1
 360 -189 l 1,2,-1
 112 -189 l 1,3,-1
 112 1443 l 1,0,-1
EndSplineSet
Validated: 1
EndChar

StartChar: perthousand
Encoding: 137 8240 190
Width: 1537
VWidth: 0
Flags: MW
LayerCount: 2
Fore
SplineSet
1303 402 m 128,-1,1
 1370 402 1370 402 1417.5 354.5 c 128,-1,2
 1465 307 1465 307 1465 240 c 128,-1,3
 1465 173 1465 173 1417.5 126 c 128,-1,4
 1370 79 1370 79 1303 79 c 128,-1,5
 1236 79 1236 79 1189 126 c 128,-1,6
 1142 173 1142 173 1142 240 c 128,-1,7
 1142 307 1142 307 1189 354.5 c 128,-1,0
 1236 402 1236 402 1303 402 c 128,-1,1
787 1271 m 1,8,-1
 1064 1271 l 1,9,-1
 428 0 l 1,10,-1
 154 5 l 1,11,-1
 787 1271 l 1,8,-1
234 1233 m 128,-1,13
 301 1233 301 1233 348.5 1186 c 128,-1,14
 396 1139 396 1139 396 1072 c 128,-1,15
 396 1005 396 1005 348.5 958 c 128,-1,16
 301 911 301 911 234 911 c 128,-1,17
 167 911 167 911 120 958 c 128,-1,18
 73 1005 73 1005 73 1072 c 128,-1,19
 73 1139 73 1139 120 1186 c 128,-1,12
 167 1233 167 1233 234 1233 c 128,-1,13
883 402 m 128,-1,21
 950 402 950 402 997 354.5 c 128,-1,22
 1044 307 1044 307 1044 240 c 128,-1,23
 1044 173 1044 173 997 126 c 128,-1,24
 950 79 950 79 883 79 c 128,-1,25
 816 79 816 79 768.5 126 c 128,-1,26
 721 173 721 173 721 240 c 128,-1,27
 721 307 721 307 768.5 354.5 c 128,-1,20
 816 402 816 402 883 402 c 128,-1,21
EndSplineSet
Validated: 1
EndChar

StartChar: florin
Encoding: 131 402 191
Width: 2048
VWidth: 0
Flags: MW
LayerCount: 2
Fore
SplineSet
598 1583 m 1,0,1
 679 1582 679 1582 757.5 1536 c 128,-1,2
 836 1490 836 1490 885 1404 c 1,3,-1
 696 1296 l 1,4,5
 668 1366 668 1366 606 1366 c 0,6,7
 570 1366 570 1366 567 1317 c 2,8,-1
 567 1247 l 1,9,-1
 318 1247 l 1,10,-1
 318 1303 l 2,11,12
 318 1366 318 1366 349 1426 c 0,13,14
 381 1485 381 1485 452 1533 c 128,-1,15
 523 1581 523 1581 598 1583 c 1,0,1
201 1098 m 1,16,-1
 744 1098 l 1,17,-1
 744 895 l 1,18,-1
 568 895 l 1,19,-1
 568 134 l 2,20,21
 568 72 568 72 536 10 c 0,22,23
 503 -49 503 -49 432 -97 c 128,-1,24
 361 -145 361 -145 287 -146 c 2,25,-1
 284 -146 l 2,26,27
 205 -146 205 -146 127 -99.5 c 128,-1,28
 49 -53 49 -53 0 33 c 1,29,-1
 188 141 l 1,30,31
 216 71 216 71 279 71 c 0,32,33
 315 71 315 71 318 119 c 2,34,-1
 318 895 l 1,35,-1
 201 895 l 1,36,-1
 201 1098 l 1,16,-1
EndSplineSet
Validated: 1
EndChar

StartChar: dagger
Encoding: 134 8224 192
Width: 648
VWidth: 0
Flags: MW
LayerCount: 2
Fore
SplineSet
199 1271 m 1,0,-1
 447 1271 l 1,1,-1
 447 1084 l 1,2,-1
 645 1084 l 1,3,-1
 645 835 l 1,4,-1
 447 835 l 1,5,-1
 447 4 l 1,6,-1
 199 4 l 1,7,-1
 199 835 l 1,8,-1
 0 835 l 1,9,-1
 0 1084 l 1,10,-1
 199 1084 l 1,11,-1
 199 1271 l 1,0,-1
EndSplineSet
Validated: 1
EndChar

StartChar: daggerdbl
Encoding: 135 8225 193
Width: 651
VWidth: 0
Flags: MW
LayerCount: 2
Fore
SplineSet
199 1271 m 1,0,-1
 447 1271 l 1,1,-1
 447 1084 l 1,2,-1
 645 1084 l 1,3,-1
 645 835 l 1,4,-1
 447 835 l 1,5,-1
 447 686 l 1,6,-1
 645 686 l 1,7,-1
 645 438 l 1,8,-1
 447 438 l 1,9,-1
 447 4 l 1,10,-1
 199 4 l 1,11,-1
 199 438 l 1,12,-1
 0 438 l 1,13,-1
 0 686 l 1,14,-1
 199 686 l 1,15,-1
 199 835 l 1,16,-1
 0 835 l 1,17,-1
 0 1084 l 1,18,-1
 199 1084 l 1,19,-1
 199 1271 l 1,0,-1
EndSplineSet
Validated: 1
EndChar

StartChar: Euro
Encoding: 128 8364 196
Width: 1202
VWidth: 0
Flags: MW
LayerCount: 2
Fore
SplineSet
791 1267 m 1,0,1
 851 1258 851 1258 901 1231 c 0,2,3
 1043 1157 1043 1157 1125 980 c 1,4,-1
 914 882 l 1,5,6
 865 988 865 988 794 1025 c 2,7,8
 793 1025.5 l 2,9,10
 792 1026 792 1026 791 1026 c 2,11,-1
 791 1267 l 1,0,1
667 1266 m 1,12,-1
 667 1020 l 1,13,14
 628 996 628 996 591 942 c 128,-1,15
 554 888 554 888 531 816 c 1,16,-1
 735 816 l 1,17,-1
 735 686 l 1,18,-1
 87 686 l 1,19,-1
 87 816 l 1,20,-1
 288 816 l 1,21,22
 317 963 317 963 392.5 1074 c 128,-1,23
 468 1185 468 1185 583 1239 c 0,24,25
 623.5 1258.5 623.5 1258.5 667 1266 c 1,12,-1
87 562 m 1,26,-1
 735 562 l 1,27,-1
 735 427 l 1,28,-1
 536 427 l 1,29,30
 560 359 560 359 594.5 309 c 128,-1,31
 629 259 629 259 667 236 c 1,32,-1
 667 -9 l 1,33,34
 619 -1 619 -1 568 25 c 0,35,36
 462 80 462 80 391 185.5 c 128,-1,37
 320 291 320 291 290 427 c 1,38,-1
 87 427 l 1,39,-1
 87 562 l 1,26,-1
909 364 m 1,40,-1
 1118 261 l 1,41,42
 1032 86 1032 86 887 18 c 0,43,44
 841 -3 841 -3 791 -11 c 1,45,-1
 791 231 l 1,46,47
 861 266 861 266 909 364 c 1,40,-1
EndSplineSet
Validated: 1
EndChar

StartChar: mu
Encoding: 181 181 197
Width: 1064
VWidth: 0
Flags: MW
LayerCount: 2
Fore
SplineSet
698 861 m 1,0,-1
 947 861 l 1,1,-1
 947 5 l 1,2,-1
 698 5 l 1,3,-1
 698 46 l 1,4,5
 662 16 662 16 604 0 c 1,6,-1
 604 237 l 1,7,8
 649 258 649 258 673.5 299.5 c 128,-1,9
 698 341 698 341 698 379 c 2,10,-1
 698 861 l 1,0,-1
120 858 m 1,11,-1
 369 858 l 1,12,-1
 369 407 l 2,13,14
 369 368 369 368 392 323.5 c 128,-1,15
 415 279 415 279 455 254 c 1,16,-1
 455 0 l 1,17,18
 412 6 412 6 368 23 c 1,19,-1
 368 -421 l 1,20,-1
 120 -421 l 1,21,-1
 120 858 l 1,11,-1
EndSplineSet
Validated: 1
EndChar

StartChar: sterling
Encoding: 163 163 198
Width: 1117
VWidth: 0
Flags: MW
LayerCount: 2
Fore
SplineSet
603 1382 m 1,0,-1
 614 1382 l 2,1,2
 718 1382 718 1382 810 1340.5 c 128,-1,3
 902 1299 902 1299 962.5 1220.5 c 128,-1,4
 1023 1142 1023 1142 1028 1042 c 1,5,-1
 780 1029 l 1,6,7
 778 1066 778 1066 732 1100 c 128,-1,8
 686 1134 686 1134 616 1134 c 2,9,-1
 609 1134 l 2,10,11
 541 1132 541 1132 498.5 1100 c 128,-1,12
 456 1068 456 1068 452 1031 c 1,13,-1
 452 932 l 1,14,-1
 204 932 l 1,15,-1
 204 1026 l 2,16,17
 204 1125 204 1125 260.5 1206.5 c 128,-1,18
 317 1288 317 1288 408 1333.5 c 128,-1,19
 499 1379 499 1379 603 1382 c 1,0,-1
630 782 m 1,20,-1
 630 579 l 1,21,-1
 452 579 l 1,22,-1
 452 248 l 1,23,-1
 987 248 l 1,24,-1
 987 0 l 1,25,-1
 156 0 l 1,26,-1
 156 248 l 1,27,-1
 204 248 l 1,28,-1
 204 579 l 1,29,-1
 87 579 l 1,30,-1
 87 782 l 1,31,-1
 630 782 l 1,20,-1
EndSplineSet
Validated: 1
EndChar

StartChar: at
Encoding: 64 64 201
Width: 1318
VWidth: 0
Flags: MW
LayerCount: 2
Fore
SplineSet
747 1044 m 1,0,-1
 747 1292 l 1,1,2
 894 1292 894 1292 1016.5 1197.5 c 128,-1,3
 1139 1103 1139 1103 1204 951 c 0,4,5
 1262 813 1262 813 1262 622 c 0,6,7
 1262 389 1262 389 1157 266 c 1,8,9
 1101 213 1101 213 1014 213 c 0,10,11
 942 213 942 213 872 248.5 c 128,-1,12
 802 284 802 284 766 341 c 0,13,14
 740 380 740 380 740 405 c 2,15,-1
 740 469 l 1,16,-1
 740 828 l 1,17,-1
 864 828 l 1,18,-1
 864 415 l 2,19,20
 864 391 864 391 904 391 c 0,21,22
 929 391 929 391 952 403 c 128,-1,23
 975 415 975 415 983 435 c 0,24,25
 1019 528 1019 528 1019 636 c 0,26,27
 1019 753 1019 753 976 853 c 0,28,29
 936 947 936 947 874 995.5 c 128,-1,30
 812 1044 812 1044 747 1044 c 1,0,-1
659 828 m 1,31,-1
 659 706 l 1,32,33
 633 704 633 704 603 663.5 c 128,-1,34
 573 623 573 623 573 586 c 0,35,36
 573 526 573 526 655 526 c 2,37,-1
 659 526 l 1,38,-1
 659 407 l 1,39,-1
 635 407 l 2,40,41
 531 407 531 407 490.5 435 c 128,-1,42
 450 463 450 463 447 544 c 2,43,-1
 447 552 l 2,44,45
 447 612 447 612 468.5 669.5 c 128,-1,46
 490 727 490 727 540 773.5 c 128,-1,47
 590 820 590 820 659 828 c 1,31,-1
745 231 m 1,48,-1
 868 0 l 1,49,50
 809 -27 809 -27 673 -29 c 0,51,52
 531 -28 531 -28 388 60 c 128,-1,53
 245 148 245 148 143 322 c 1,54,55
 79 469 79 469 79 636 c 0,56,57
 79 804 79 804 143 951 c 0,58,59
 209 1104 209 1104 331 1198 c 128,-1,60
 453 1292 453 1292 599 1292 c 1,61,-1
 599 1044 l 1,62,63
 534 1044 534 1044 472 995.5 c 128,-1,64
 410 947 410 947 370 853 c 0,65,66
 328 756 328 756 328 636 c 128,-1,67
 328 516 328 516 370 419 c 0,68,69
 406 339 406 339 489.5 279.5 c 128,-1,70
 573 220 573 220 673 220 c 0,71,72
 695 220 695 220 718 225.5 c 128,-1,73
 741 231 741 231 745 231 c 1,48,-1
EndSplineSet
Validated: 1
EndChar

StartChar: trademark
Encoding: 153 8482 202
Width: 972
VWidth: 0
Flags: MW
LayerCount: 2
Fore
SplineSet
457 1583 m 1,0,-1
 562 1583 l 1,1,-1
 562 1046 l 1,2,-1
 457 1046 l 1,3,-1
 457 1583 l 1,0,-1
846 1583 m 1,4,-1
 952 1583 l 1,5,6
 952 1046 l 1,7,-1
 846 1046 l 1,8,9
 846 1583 l 1,4,-1
20 1583 m 1,10,-1
 162 1583 l 1,11,-1
 268 1583 l 1,12,-1
 410 1583 l 1,13,-1
 410 1477 l 1,14,-1
 268 1477 l 1,15,-1
 268 1046 l 1,16,-1
 162 1046 l 1,17,-1
 162 1477 l 1,18,-1
 20 1477 l 1,19,-1
 20 1583 l 1,10,-1
625 1499 m 1,20,-1
 709 1388 l 1,21,-1
 783 1494 l 1,22,-1
 783 1312 l 1,23,-1
 711 1209 l 1,24,-1
 625 1324 l 1,25,-1
 625 1499 l 1,20,-1
EndSplineSet
Validated: 1
EndChar

StartChar: yen
Encoding: 165 165 203
Width: 1145
VWidth: 0
Flags: MW
LayerCount: 2
Fore
SplineSet
81 1266 m 1,0,-1
 366 1266 l 1,1,-1
 727 620 l 1,2,-1
 727 459 l 1,3,-1
 886 459 l 1,4,-1
 886 335 l 1,5,-1
 881 335 l 1,6,-1
 333 335 l 1,7,-1
 290 335 l 1,8,-1
 290 459 l 1,9,-1
 447 459 l 1,10,-1
 447 621 l 1,11,-1
 81 1266 l 1,0,-1
777 1266 m 1,12,-1
 1062 1266 l 1,13,-1
 812 783 l 1,14,-1
 658 1057 l 1,15,-1
 777 1266 l 1,12,-1
886 262 m 1,16,-1
 886 137 l 1,17,-1
 727 137 l 1,18,-1
 727 0 l 1,19,-1
 447 0 l 1,20,-1
 447 137 l 1,21,-1
 290 137 l 1,22,-1
 290 262 l 1,23,-1
 886 262 l 1,16,-1
EndSplineSet
Validated: 1
EndChar

StartChar: currency
Encoding: 164 164 204
Width: 1203
VWidth: 0
Flags: MW
LayerCount: 2
Fore
SplineSet
97 1072 m 1,0,-1
 405 1072 l 1,1,-1
 454 1006 l 1,2,3
 492 1020 492 1020 530 1026 c 1,4,-1
 530 770 l 1,5,6
 474 748 474 748 439.5 698.5 c 128,-1,7
 405 649 405 649 405 586 c 128,-1,8
 405 523 405 523 439.5 473 c 128,-1,9
 474 423 474 423 530 401 c 1,10,-1
 530 145 l 1,11,12
 481 154 481 154 436 172 c 1,13,-1
 391 104 l 1,14,-1
 93 104 l 1,15,-1
 246 319 l 1,16,17
 157 438 157 438 157 586 c 0,18,19
 157 739 157 739 253 861 c 1,20,-1
 97 1072 l 1,0,-1
801 1072 m 1,21,-1
 1109 1072 l 1,22,-1
 954 863 l 1,23,24
 1051 742 1051 742 1051 586 c 0,25,26
 1051 439 1051 439 961 318 c 1,27,-1
 1113 104 l 1,28,-1
 815 104 l 1,29,-1
 771 172 l 1,30,31
 723 152 723 152 678 145 c 1,32,-1
 678 401 l 1,33,34
 734 423 734 423 768.5 473 c 128,-1,35
 803 523 803 523 803 586 c 128,-1,36
 803 649 803 649 768.5 698.5 c 128,-1,37
 734 748 734 748 678 770 c 1,38,-1
 678 1026 l 1,39,40
 711 1021 711 1021 752 1007 c 1,41,-1
 801 1072 l 1,21,-1
EndSplineSet
Validated: 1
EndChar

StartChar: copyright
Encoding: 169 169 206
Width: 1328
VWidth: 0
Flags: MW
LayerCount: 2
Fore
SplineSet
590 34 m 1,0,1
 446 34 446 34 325.5 117 c 128,-1,2
 205 200 205 200 136 340.5 c 128,-1,3
 67 481 67 481 67 644 c 128,-1,4
 67 807 67 807 136 947.5 c 128,-1,5
 205 1088 205 1088 326 1171.5 c 128,-1,6
 447 1255 447 1255 590 1255 c 1,7,-1
 590 1024 l 1,8,9
 524 1024 524 1024 462 979 c 128,-1,10
 400 934 400 934 360 846 c 0,11,12
 317 752 317 752 317 644 c 128,-1,13
 317 536 317 536 360 442 c 0,14,15
 400 354 400 354 462 309 c 128,-1,16
 524 264 524 264 590 264 c 1,17,-1
 590 34 l 1,0,1
739 1255 m 1,18,19
 882 1255 882 1255 1003 1171.5 c 128,-1,20
 1124 1088 1124 1088 1192.5 948 c 128,-1,21
 1261 808 1261 808 1261 644 c 0,22,23
 1261 488 1261 488 1197 351 c 0,24,25
 1132 211 1132 211 1005.5 122.5 c 128,-1,26
 879 34 879 34 739 34 c 1,27,-1
 739 264 l 1,28,29
 805 264 805 264 866.5 309 c 128,-1,30
 928 354 928 354 968 442 c 0,31,32
 1011 536 1011 536 1011 644 c 128,-1,33
 1011 752 1011 752 968 846 c 0,34,35
 928 934 928 934 866.5 979 c 128,-1,36
 805 1024 805 1024 739 1024 c 1,37,-1
 739 1255 l 1,18,19
427 657 m 1,38,39
 432 754 432 754 507 828.5 c 128,-1,40
 582 903 582 903 682 903 c 2,41,-1
 687 903 l 2,42,43
 750 903 750 903 804.5 873.5 c 128,-1,44
 859 844 859 844 894 792 c 1,45,-1
 777 711 l 1,46,47
 743 760 743 760 683 760 c 0,48,49
 635 760 635 760 603 727.5 c 128,-1,50
 571 695 571 695 569 651 c 2,51,-1
 569 646 l 2,52,53
 569 601 569 601 601.5 566.5 c 128,-1,54
 634 532 634 532 683 532 c 0,55,56
 737 532 737 532 771 574 c 1,57,-1
 881 483 l 1,58,59
 844 438 844 438 792 414 c 128,-1,60
 740 390 740 390 683 390 c 0,61,62
 572 390 572 390 499.5 467 c 128,-1,63
 427 544 427 544 427 646 c 2,64,-1
 427 657 l 1,38,39
EndSplineSet
Validated: 1
EndChar

StartChar: ordfeminine
Encoding: 170 170 207
Width: 766
VWidth: 0
Flags: MW
LayerCount: 2
Fore
SplineSet
470 1271 m 1,0,-1
 624 1271 l 1,1,-1
 624 751 l 1,2,-1
 470 751 l 1,3,-1
 470 1271 l 1,0,-1
372 1271 m 1,4,-1
 372 1120 l 1,5,6
 340 1118 340 1118 303.5 1068 c 128,-1,7
 267 1018 267 1018 267 971 c 0,8,9
 267 898 267 898 367 898 c 2,10,-1
 372 898 l 1,11,-1
 372 752 l 1,12,13
 341 752 l 2,14,15
 215 752 215 752 165.5 786.5 c 128,-1,16
 116 821 116 821 112 920 c 1,17,-1
 112 930 l 2,18,19
 112 984 112 984 128 1039 c 128,-1,20
 144 1094 144 1094 174 1143.5 c 128,-1,21
 204 1193 204 1193 256 1228 c 128,-1,22
 308 1263 308 1263 372 1271 c 1,4,-1
112 684 m 1,23,-1
 659 684 l 1,24,-1
 659 530 l 1,25,-1
 112 530 l 1,26,-1
 112 684 l 1,23,-1
EndSplineSet
Validated: 1
EndChar

StartChar: ordmasculine
Encoding: 186 186 208
Width: 778
VWidth: 0
Flags: MW
LayerCount: 2
Fore
SplineSet
339 1577 m 1,0,-1
 339 1417 l 1,1,2
 304 1403 304 1403 282.5 1372 c 128,-1,3
 261 1341 261 1341 261 1302 c 128,-1,4
 261 1263 261 1263 282.5 1231.5 c 128,-1,5
 304 1200 304 1200 339 1186 c 1,6,-1
 339 1026 l 1,7,8
 239 1043 239 1043 172.5 1121 c 128,-1,9
 106 1199 106 1199 106 1302 c 128,-1,10
 106 1405 106 1405 172.5 1482.5 c 128,-1,11
 239 1560 239 1560 339 1577 c 1,0,-1
432 1577 m 1,12,13
 532 1560 532 1560 598.5 1482.5 c 128,-1,14
 665 1405 665 1405 665 1302 c 128,-1,15
 665 1199 665 1199 598.5 1121 c 128,-1,16
 532 1043 532 1043 432 1026 c 1,17,-1
 432 1186 l 1,18,19
 467 1200 467 1200 488.5 1231.5 c 128,-1,20
 510 1263 510 1263 510 1302 c 128,-1,21
 510 1341 510 1341 488.5 1372 c 128,-1,22
 467 1403 467 1403 432 1417 c 1,23,-1
 432 1577 l 1,12,13
106 971 m 1,24,-1
 659 971 l 1,25,-1
 659 816 l 1,26,-1
 106 816 l 1,27,-1
 106 971 l 1,24,-1
EndSplineSet
Validated: 1
EndChar

StartChar: logicalnot
Encoding: 172 172 209
Width: 1362
VWidth: 0
Flags: MW
LayerCount: 2
Fore
SplineSet
118 982 m 1,0,-1
 1242 982 l 1,1,-1
 1242 438 l 1,2,-1
 980 438 l 1,3,-1
 980 734 l 1,4,-1
 118 734 l 1,5,-1
 118 982 l 1,0,-1
EndSplineSet
Validated: 1
EndChar

StartChar: onehalf
Encoding: 189 189 210
Width: 1086
VWidth: 0
Flags: MW
LayerCount: 2
Fore
SplineSet
193 1272 m 1,0,-1
 198 1272 l 1,1,-1
 307 1272 l 1,2,-1
 307 702 l 1,3,-1
 196 702 l 1,4,-1
 196 1110 l 1,5,-1
 156 1066 l 1,6,-1
 73 1140 l 1,7,-1
 193 1272 l 1,0,-1
749 1272 m 1,8,-1
 942 1271 l 1,9,-1
 306 4 l 1,10,-1
 116 4 l 1,11,-1
 749 1272 l 1,8,-1
734 -0 m 1,12,-1
 676 -0 l 1,13,-1
 676 107 l 1,14,15
 710 155 710 155 753.5 211 c 128,-1,16
 797 267 797 267 833.5 313 c 128,-1,17
 870 359 870 359 879 371 c 0,18,19
 895 392 895 392 895 407 c 0,20,21
 895 437 895 437 865 456 c 1,22,-1
 865 573 l 1,23,24
 906 564 906 564 938.5 538.5 c 128,-1,25
 971 513 971 513 989 478 c 0,26,27
 1001 452.5 1001 452.5 1001 424 c 0,28,29
 1001 376 1001 376 968 334 c 2,30,-1
 734 -0 l 1,12,-1
798 573 m 1,31,-1
 798 455 l 1,32,33
 767 435 767 435 767 395 c 1,34,-1
 655 395 l 1,35,36
 655 460 655 460 695.5 510.5 c 128,-1,37
 736 561 736 561 798 573 c 1,31,-1
891 109 m 1,38,-1
 1011 109 l 1,39,-1
 1011 0 l 1,40,-1
 816 0 l 1,41,-1
 891 109 l 1,38,-1
EndSplineSet
Validated: 1
EndChar

StartChar: onequarter
Encoding: 188 188 211
Width: 1076
VWidth: 0
Flags: MW
LayerCount: 2
Fore
SplineSet
193 1275 m 1,0,-1
 198 1271 l 1,1,-1
 307 1271 l 1,2,-1
 307 703 l 1,3,-1
 196 703 l 1,4,-1
 196 1111 l 1,5,-1
 156 1067 l 1,6,-1
 73 1141 l 1,7,-1
 193 1275 l 1,0,-1
749 1271 m 1,8,-1
 942 1271 l 1,9,-1
 306 5 l 1,10,-1
 116 5 l 1,11,-1
 749 1271 l 1,8,-1
886 569 m 1,12,-1
 998 569 l 1,13,-1
 998 0 l 1,14,-1
 886 0 l 1,15,-1
 886 569 l 1,12,-1
819 499 m 1,16,-1
 819 325 l 1,17,-1
 771 268 l 1,18,-1
 819 268 l 1,19,-1
 819 156 l 1,20,-1
 629 156 l 1,21,-1
 629 272 l 1,22,-1
 819 499 l 1,16,-1
EndSplineSet
Validated: 1
EndChar

StartChar: threequarters
Encoding: 190 190 212
Width: 1098
VWidth: 0
Flags: MW
LayerCount: 2
Fore
SplineSet
223 1271 m 1,0,-1
 223 1151 l 1,1,2
 191 1131 191 1131 191 1089 c 1,3,-1
 79 1089 l 1,4,5
 79 1156 79 1156 120 1207 c 128,-1,6
 161 1258 161 1258 223 1271 c 1,0,-1
290 1271 m 1,7,8
 375 1250 375 1250 414 1175 c 0,9,10
 426 1150 426 1150 426 1120 c 0,11,12
 426 1068 426 1068 392 1025 c 0,13,14
 388 1019 388 1019 363 989 c 1,15,16
 386 960 386 960 392 952 c 0,17,18
 426 909 426 909 426 858 c 0,19,20
 426 828 426 828 414 803 c 0,21,22
 375 726 375 726 290 706 c 1,23,-1
 290 827 l 1,24,25
 304 837 304 837 313 851 c 0,26,27
 318 863 318 863 318 872 c 0,28,29
 318 905 318 905 284.5 935.5 c 128,-1,30
 251 966 251 966 214 966 c 2,31,-1
 212 966 l 1,32,-1
 212 1024 l 1,33,34
 241 1025 241 1025 279.5 1045.5 c 128,-1,35
 318 1066 318 1066 318 1101 c 0,36,37
 318 1115 318 1115 313 1126 c 0,38,39
 303 1142 303 1142 290 1151 c 1,40,-1
 290 1271 l 1,7,8
771 1271 m 1,41,-1
 963 1271 l 1,42,-1
 327 5 l 1,43,-1
 138 5 l 1,44,-1
 771 1271 l 1,41,-1
79 889 m 1,45,-1
 191 889 l 1,46,47
 191 846 191 846 223 826 c 1,48,-1
 223 705 l 1,49,50
 161 718 161 718 120 770 c 128,-1,51
 79 822 79 822 79 889 c 1,45,-1
908 570 m 1,52,-1
 1019 570 l 1,53,-1
 1019 0 l 1,54,-1
 908 0 l 1,55,-1
 908 570 l 1,52,-1
841 499 m 1,56,-1
 841 325 l 1,57,-1
 793 268 l 1,58,-1
 841 268 l 1,59,-1
 841 156 l 1,60,-1
 651 156 l 1,61,-1
 651 272 l 1,62,-1
 841 499 l 1,56,-1
EndSplineSet
Validated: 1
EndChar

StartChar: uni00B2
Encoding: 178 178 213
Width: 564
VWidth: 0
Flags: MW
LayerCount: 2
Fore
SplineSet
188 995 m 1,0,-1
 129 995 l 1,1,-1
 129 1103 l 1,2,3
 176 1168 176 1168 254.5 1267.5 c 2,4,-1
 333 1367 l 2,5,6
 349 1388 349 1388 349 1403 c 0,7,8
 349 1431 349 1431 318 1451 c 1,9,-1
 318 1569 l 1,10,11
 359 1560 359 1560 391.5 1534.5 c 128,-1,12
 424 1509 424 1509 442 1474 c 0,13,14
 454 1448.5 454 1448.5 454 1420 c 0,15,16
 454 1371 454 1371 421 1329 c 2,17,-1
 188 995 l 1,0,-1
252 1568 m 1,18,-1
 252 1451 l 1,19,20
 220 1431 220 1431 220 1391 c 1,21,-1
 109 1391 l 1,22,23
 109 1456 109 1456 149.5 1506 c 128,-1,24
 190 1556 190 1556 252 1568 c 1,18,-1
464 1104 m 1,25,-1
 464 995 l 1,26,-1
 269 995 l 1,27,-1
 345 1104 l 1,28,-1
 464 1104 l 1,25,-1
EndSplineSet
Validated: 1
EndChar

StartChar: uni00B3
Encoding: 179 179 214
Width: 567
VWidth: 0
Flags: MW
LayerCount: 2
Fore
SplineSet
256 1583 m 1,0,-1
 256 1461 l 1,1,2
 223 1440 223 1440 223 1398 c 1,3,-1
 112 1398 l 1,4,5
 112 1465 112 1465 153 1517.5 c 128,-1,6
 194 1570 194 1570 256 1583 c 1,0,-1
323 1581 m 1,7,8
 361 1572 361 1572 394.5 1546 c 128,-1,9
 428 1520 428 1520 446 1484 c 0,10,11
 459 1455 459 1455 459 1428 c 0,12,13
 459 1380 459 1380 425 1335 c 0,14,15
 418 1324 418 1324 396 1298 c 1,16,17
 423 1265 423 1265 425 1262 c 0,18,19
 459 1217 459 1217 459 1169 c 0,20,21
 459 1141 459 1141 446 1112 c 0,22,23
 407 1036 407 1036 323 1016 c 1,24,-1
 323 1136 l 1,25,26
 335 1144 335 1144 345 1161 c 0,27,28
 350 1170 350 1170 350 1182 c 0,29,30
 350 1215 350 1215 317 1245.5 c 128,-1,31
 284 1276 284 1276 247 1276 c 2,32,-1
 245 1276 l 1,33,-1
 245 1334 l 1,34,35
 274 1335 274 1335 312 1355.5 c 128,-1,36
 350 1376 350 1376 350 1411 c 0,37,38
 350 1425 350 1425 345 1436 c 0,39,40
 336 1452 336 1452 323 1460 c 1,41,-1
 323 1581 l 1,7,8
112 1198 m 1,42,-1
 223 1198 l 1,43,44
 223 1157 223 1157 256 1136 c 1,45,-1
 256 1014 l 1,46,47
 194 1027 194 1027 153 1079 c 128,-1,48
 112 1131 112 1131 112 1198 c 1,42,-1
EndSplineSet
Validated: 1
EndChar

StartChar: uni00B9
Encoding: 185 185 215
Width: 440
VWidth: 0
Flags: MW
LayerCount: 2
Fore
SplineSet
212 1583 m 1,0,-1
 216 1579 l 1,1,-1
 326 1579 l 1,2,-1
 326 1011 l 1,3,-1
 214 1011 l 1,4,-1
 214 1419 l 1,5,-1
 174 1374 l 1,6,-1
 92 1449 l 1,7,-1
 212 1583 l 1,0,-1
EndSplineSet
Validated: 1
EndChar

StartChar: degree
Encoding: 176 176 216
Width: 778
VWidth: 0
Flags: MW
LayerCount: 2
Fore
SplineSet
339 1577 m 1,0,-1
 339 1417 l 1,1,2
 304 1403 304 1403 282.5 1372 c 128,-1,3
 261 1341 261 1341 261 1302 c 128,-1,4
 261 1263 261 1263 282.5 1231.5 c 128,-1,5
 304 1200 304 1200 339 1186 c 1,6,-1
 339 1026 l 1,7,8
 239 1043 239 1043 172.5 1121 c 128,-1,9
 106 1199 106 1199 106 1302 c 128,-1,10
 106 1405 106 1405 172.5 1482.5 c 128,-1,11
 239 1560 239 1560 339 1577 c 1,0,-1
432 1577 m 1,12,13
 532 1560 532 1560 598.5 1482.5 c 128,-1,14
 665 1405 665 1405 665 1302 c 128,-1,15
 665 1199 665 1199 598.5 1121 c 128,-1,16
 532 1043 532 1043 432 1026 c 1,17,-1
 432 1186 l 1,18,19
 467 1200 467 1200 488.5 1231.5 c 128,-1,20
 510 1263 510 1263 510 1302 c 128,-1,21
 510 1341 510 1341 488.5 1372 c 128,-1,22
 467 1403 467 1403 432 1417 c 1,23,-1
 432 1577 l 1,12,13
EndSplineSet
Validated: 1
EndChar

StartChar: paragraph
Encoding: 182 182 217
Width: 1270
VWidth: 0
Flags: MW
LayerCount: 2
Fore
SplineSet
871 1266 m 1,0,-1
 871 0 l 1,1,-1
 685 0 l 1,2,-1
 685 1266 l 1,3,-1
 871 1266 l 1,0,-1
577 1266 m 1,4,-1
 577 472 l 1,5,-1
 503 472 l 2,6,7
 340 472 340 472 223 589 c 128,-1,8
 106 706 106 706 106 869 c 128,-1,9
 106 1032 106 1032 223 1149 c 128,-1,10
 340 1266 340 1266 503 1266 c 2,11,-1
 577 1266 l 1,4,-1
1154 1266 m 1,12,-1
 1154 0 l 1,13,-1
 968 0 l 1,14,-1
 968 1266 l 1,15,-1
 1154 1266 l 1,12,-1
EndSplineSet
Validated: 1
EndChar

StartChar: cedilla
Encoding: 184 184 219
Width: 595
VWidth: 0
Flags: MW
LayerCount: 2
Fore
SplineSet
196 184 m 1,0,-1
 370 117 l 1,1,2
 358 86 358 86 349 49 c 0,3,4
 345 34 345 34 343 14 c 128,-1,5
 341 -6 341 -6 341 -18 c 128,-1,6
 341 -30 341 -30 340 -30 c 1,7,8
 349 -43 349 -43 371 -66 c 0,9,10
 398 -96 398 -96 405 -105 c 0,11,12
 434 -144 434 -144 436 -184 c 2,13,-1
 436 -197 l 2,14,15
 436 -288 436 -288 363 -368 c 0,16,17
 281 -457 281 -457 166 -457 c 2,18,-1
 157 -457 l 1,19,-1
 164 -271 l 1,20,21
 167 -271 l 2,22,23
 200 -271 200 -271 226 -242 c 0,24,25
 240 -227 240 -227 246 -206 c 0,26,27
 243 -202 243 -202 236 -195 c 0,28,29
 234 -193 234 -193 225 -183.5 c 128,-1,30
 216 -174 216 -174 211.5 -169.5 c 128,-1,31
 207 -165 207 -165 199 -155 c 128,-1,32
 191 -145 191 -145 185.5 -136.5 c 128,-1,33
 180 -128 180 -128 174 -115 c 128,-1,34
 168 -102 168 -102 163 -89 c 0,35,36
 150 -50 150 -50 150 -13 c 0,37,38
 150 21 150 21 168 93 c 0,39,40
 173 115 173 115 180 138 c 128,-1,41
 187 161 187 161 191.5 172.5 c 2,42,-1
 196 184 l 1,0,-1
EndSplineSet
Validated: 1
EndChar

StartChar: uni00AD
Encoding: 173 173 220
Width: 889
VWidth: 0
Flags: MW
LayerCount: 2
Fore
SplineSet
106 676 m 1,0,-1
 784 676 l 1,1,-1
 784 428 l 1,2,-1
 106 428 l 1,3,-1
 106 676 l 1,0,-1
EndSplineSet
Validated: 1
EndChar

StartChar: registered
Encoding: 174 174 221
Width: 1413
VWidth: 0
Flags: MW
LayerCount: 2
Fore
SplineSet
632 1267 m 1,0,-1
 632 1037 l 1,1,2
 566 1037 566 1037 504 992 c 128,-1,3
 442 947 442 947 402 859 c 0,4,5
 360 768 360 768 360 657 c 128,-1,6
 360 546 360 546 402 455 c 0,7,8
 442 367 442 367 504 322 c 128,-1,9
 566 277 566 277 632 277 c 1,10,-1
 632 47 l 1,11,12
 485 47 485 47 362.5 134.5 c 128,-1,13
 240 222 240 222 174 364 c 0,14,15
 110 501 110 501 110 657 c 128,-1,16
 110 813 110 813 174 950 c 0,17,18
 240 1092 240 1092 362.5 1179.5 c 128,-1,19
 485 1267 485 1267 632 1267 c 1,0,-1
781 1267 m 1,20,21
 928 1267 928 1267 1050.5 1179.5 c 128,-1,22
 1173 1092 1173 1092 1239 950 c 0,23,24
 1304 811 1304 811 1304 657 c 128,-1,25
 1304 503 1304 503 1239 364 c 0,26,27
 1173 222 1173 222 1050.5 134.5 c 128,-1,28
 928 47 928 47 781 47 c 1,29,-1
 781 277 l 1,30,31
 847 277 847 277 909 322 c 128,-1,32
 971 367 971 367 1011 455 c 0,33,34
 1053 547 1053 547 1053 657 c 0,35,36
 1053 768 1053 768 1011 859 c 0,37,38
 971 947 971 947 909 992 c 128,-1,39
 847 1037 847 1037 781 1037 c 1,40,-1
 781 1267 l 1,20,21
555 877 m 1,41,-1
 645 877 l 1,42,-1
 645 417 l 1,43,-1
 555 417 l 1,44,-1
 555 877 l 1,41,-1
699 877 m 1,45,-1
 726 877 l 2,46,47
 785 877 785 877 828 834.5 c 128,-1,48
 871 792 871 792 871 733 c 0,49,50
 871 693 871 693 850.5 659 c 128,-1,51
 830 625 830 625 795 606 c 1,52,-1
 905 418 l 1,53,-1
 800 418 l 1,54,-1
 699 588 l 1,55,-1
 699 678 l 1,56,-1
 726 678 l 2,57,58
 748 678 748 678 764.5 694 c 128,-1,59
 781 710 781 710 781 733 c 0,60,61
 781 755 781 755 765 771 c 128,-1,62
 749 787 749 787 726 787 c 2,63,-1
 699 787 l 1,64,-1
 699 877 l 1,45,-1
EndSplineSet
Validated: 1
EndChar

StartChar: macron
Encoding: 175 175 222
Width: 889
VWidth: 0
Flags: MW
LayerCount: 2
Fore
SplineSet
106 1570 m 1,0,-1
 784 1570 l 1,1,-1
 784 1322 l 1,2,-1
 106 1322 l 1,3,-1
 106 1570 l 1,0,-1
EndSplineSet
Validated: 1
EndChar

StartChar: section
Encoding: 167 167 223
Width: 889
VWidth: 0
Flags: MW
LayerCount: 2
Fore
SplineSet
504 1283 m 1,0,1
 586 1273 586 1273 651 1231.5 c 128,-1,2
 716 1190 716 1190 751 1118 c 1,3,-1
 556 1023 l 1,4,5
 544 1045 544 1045 504 1060 c 1,6,-1
 504 1283 l 1,0,1
380 1279 m 1,7,-1
 380 1066 l 1,8,9
 339 1051 339 1051 339 1014 c 0,10,11
 339 986 339 986 380 963 c 1,12,-1
 380 696 l 2,13,14
 378 695 378 695 373.5 693 c 128,-1,15
 369 691 369 691 367 690 c 0,16,17
 355 684 355 684 346.5 669.5 c 128,-1,18
 338 655 338 655 339 640 c 0,19,20
 340 610 340 610 380 591 c 1,21,-1
 380 392 l 1,22,23
 325 411 325 411 285.5 429 c 128,-1,24
 246 447 246 447 204.5 475 c 128,-1,25
 163 503 163 503 141 543 c 128,-1,26
 119 583 119 583 119 632 c 0,27,28
 119 659 119 659 126 687 c 0,29,30
 146 767 146 767 228 833 c 1,31,32
 120 902 120 902 120 1007 c 0,33,34
 120 1032.5 120 1032.5 126 1061 c 0,35,36
 144 1133 144 1133 215 1196 c 128,-1,37
 286 1259 286 1259 380 1279 c 1,7,-1
504 919 m 1,38,39
 542 908 542 908 561.5 902 c 128,-1,40
 581 896 581 896 616.5 882.5 c 128,-1,41
 652 869 652 869 672 858.5 c 128,-1,42
 692 848 692 848 718 829.5 c 128,-1,43
 744 811 744 811 758 792 c 128,-1,44
 772 773 772 773 782 747 c 128,-1,45
 792 721 792 721 792 691 c 0,46,47
 792 558 792 558 700 468 c 1,48,49
 792 409 792 409 792 315 c 0,50,51
 792 197 792 197 711 110 c 128,-1,52
 630 23 630 23 504 0 c 1,53,-1
 504 218 l 1,54,55
 576 238 576 238 576 291 c 0,56,57
 576 325 576 325 504 351 c 1,58,-1
 504 576 l 1,59,-1
 506 576 l 1,60,61
 557 593 557 593 557 638 c 0,62,63
 557 639 557 639 556.5 643 c 128,-1,64
 556 647 556 647 556 649 c 0,65,66
 554 663 554 663 539.5 676.5 c 128,-1,67
 525 690 525 690 504 698 c 1,68,-1
 504 919 l 1,38,39
300 282 m 1,69,70
 303 268 303 268 325 251.5 c 128,-1,71
 347 235 347 235 380 224 c 1,72,-1
 380 0 l 1,73,74
 287 17 287 17 208.5 76.5 c 128,-1,75
 130 136 130 136 88 232 c 1,76,-1
 300 282 l 1,69,70
EndSplineSet
Validated: 1
EndChar
